<svg xmlns="http://www.w3.org/2000/svg" id="Layer_1" viewBox="0 0 1080 858.44"><defs><style>.cls-1{fill:#fff;}.cls-2{fill:#d9d9d9;}.cls-3{fill:#ececec;}.cls-4{fill:#c6c6c5;}</style></defs><g><rect class="cls-4" x="878.5" y="51.75" width="146.63" height="153.19"></rect><polyline class="cls-3" points="878.5 51.75 581.42 349.93 581.42 358.14 724.77 359.23 878.5 204.95"></polyline><polygon class="cls-2" points="724.77 359.23 798.63 435.28 1025.13 204.95 878.5 204.95 724.77 359.23"></polygon><polygon class="cls-3" points="581.42 358.14 724.77 359.23 1034.98 670.72 1039.35 811.51 581.42 358.14"></polygon><polygon class="cls-4" points="582.88 358.14 582.88 520.44 884.7 811.51 1037.89 811.51 582.88 358.14"></polygon><polygon class="cls-3" points="468.17 31.17 582.88 137.47 582.88 716.67 468.17 617.47 468.17 31.17"></polygon><polygon class="cls-1" points="468.17 31.17 353.46 137.47 353.46 716.67 468.17 617.47 468.17 31.17"></polygon><polygon class="cls-4" points="353.46 716.67 468.17 617.47 582.88 716.67 467.08 827.28 353.46 716.67"></polygon></g><g><path class="cls-1" d="M160.99,175.08h-32.31L40.65,392.88h39.34l14.83-33.43h101.23l14.74,33.43h40.46l-90.26-217.8Zm-50.06,143.66l34.97-83.49,33.94,83.49H110.94Z"></path><path class="cls-1" d="M199.82,615.56c54.77-32.31,36.94-130.8-13.11-151.63H53.76v219.43h36.09l-1.63-60.17,67.89-.51,33.34,60.69h44.31c-13.97-27.6-35.06-57.09-33.94-67.8Zm-22.11-40.54l-88.37-1.37v-59.31h88.37c23.49,2.4,27.34,57.69,0,60.69Z"></path></g></svg>