<svg version="1.1" id="Layer_1" xmlns="http://www.w3.org/2000/svg" x="0" y="0" viewBox="0 0 90.06 24.3" xml:space="preserve"><path d="M10.39 3.45c2.83 0 4.49 2.04 5.05 3.79l.31.96h.41V2.9h-.36l-.03.04c-.67.84-1.05 1.14-1.47 1.14-.26 0-.46-.12-.76-.29l-.11-.06c-.95-.55-1.99-.83-3.07-.83-2.52 0-4.64.99-6.14 2.87-1.3 1.63-2.04 3.82-2.09 6.18v.26c.05 2.37.79 4.55 2.09 6.18 1.5 1.88 3.63 2.87 6.14 2.87 1.08 0 2.12-.28 3.07-.83l.11-.06c.3-.18.5-.29.76-.29.41 0 .8.3 1.47 1.14l.03.04h.36v-5.29h-.41l-.31.96c-.56 1.75-2.22 3.79-5.05 3.79-4.89 0-5.34-6.48-5.36-8.64.02-2.15.47-8.63 5.36-8.63zm22.1.33l.65.03c1.12.05 1.38.19 1.38 3.77v3.95h-9.46V7.58c0-3.57.26-3.72 1.38-3.77l.65-.03v-.54h-6.64v.54l.65.03c1.12.05 1.38.19 1.38 3.77v8.9c0 3.57-.26 3.72-1.38 3.77l-.65.03v.54h6.64v-.54l-.65-.03c-1.12-.05-1.38-.19-1.38-3.77v-4.41h9.46v4.41c0 3.57-.26 3.72-1.38 3.77l-.65.03v.54h6.64v-.54l-.65-.03c-1.12-.05-1.38-.19-1.38-3.77v-8.9c0-3.57.26-3.72 1.38-3.77l.65-.03v-.54h-6.64v.54zm22.1 0l.65.03c1.52.07 2.43 2.85 2.43 5.49v5.43c0 3.34-2.2 5.49-5.59 5.49-3.62 0-5.7-1.93-5.7-5.29V7.58c0-3.57.26-3.72 1.38-3.77l.65-.03v-.54h-6.64v.54l.65.03c1.12.05 1.38.19 1.38 3.77v7.38c0 3.79 2.82 6.14 7.35 6.14 4.35 0 7.17-2.5 7.17-6.37V9.31c0-3.7.55-5.4 1.77-5.49l.39-.04v-.54h-5.9v.54zm16.74-.54h-8.35v.54l.65.03c1.12.05 1.38.19 1.38 3.77v8.9c0 3.57-.26 3.72-1.38 3.77l-.65.03v.54h7.41v-.54l-.65-.03c-1.91-.1-2.15-.24-2.15-3.77v-2.89h3.84c3.88 0 6.19-1.86 6.19-4.98.01-3.21-2.52-5.37-6.29-5.37zm-3.74 4.34c0-3.49.08-3.77 1.09-3.77h2.65c2.36 0 3.2 2.54 3.2 4.72 0 1.69-.4 4.51-3.1 4.51h-3.84V7.58zm19.16-3.76l.65-.03v-.55h-6.64v.54l.65.03c1.12.05 1.38.19 1.38 3.77v8.9c0 3.57-.26 3.72-1.38 3.77l-.65.03v.54h6.64v-.54l-.65-.03c-1.12-.05-1.38-.19-1.38-3.77v-8.9c0-3.57.26-3.72 1.38-3.76z" fill="#333"/></svg>