<?xml version="1.0" encoding="UTF-8"?>
<svg width="138px" height="100px" viewBox="0 0 138 100" version="1.1" xmlns="http://www.w3.org/2000/svg" xmlns:xlink="http://www.w3.org/1999/xlink">
    <!-- Generator: Sketch 51.3 (57544) - http://www.bohemiancoding.com/sketch -->
    <title>Group</title>
    <desc>Created with Sketch.</desc>
    <defs>
        <polygon id="path-1" points="0.114482759 0.115646552 7.94784483 0.115646552 7.94784483 10.3639224 0.114482759 10.3639224"></polygon>
        <polygon id="path-3" points="0.065387931 0.109137931 8.03866379 0.109137931 8.03866379 9.9137931 0.065387931 9.9137931"></polygon>
        <polygon id="path-5" points="0.0601724138 0.109137931 6.25715517 0.109137931 6.25715517 9.9137931 0.0601724138 9.9137931"></polygon>
        <polygon id="path-7" points="0.223491379 0.108922414 9.83556034 0.108922414 9.83556034 9.9137931 0.223491379 9.9137931"></polygon>
        <polygon id="path-9" points="0.175560345 0.109094828 9.44323276 0.109094828 9.44323276 9.9137931 0.175560345 9.9137931"></polygon>
    </defs>
    <g id="--Desktop" stroke="none" stroke-width="1" fill="none" fill-rule="evenodd">
        <g id="Desktop_Home" transform="translate(-651.000000, -15.000000)">
            <g id="Group" transform="translate(651.000000, 15.000000)">
                <path d="M71.352931,-4.31034483e-05 L71.352931,17.8210776 L33.9167241,17.8210776 L33.9167241,31.9809914 L33.9167241,48.6478017 L33.9167241,59.4943534 L71.352931,59.4943534 L72.7637069,59.4943534 L103.772328,59.4943534 L103.772328,7.05469828 L71.352931,-4.31034483e-05 Z M72.7637069,48.6478017 L72.7637069,31.9809914 L72.7637069,23.9275431 L72.7637069,1.75125 L102.361552,8.19133621 L102.361552,58.0831466 L72.7637069,58.0831466 L72.7637069,48.6478017 Z M35.3275,48.6478017 L35.3275,47.2365948 L35.3275,31.9809914 L35.3275,30.5702155 L35.3275,19.2318534 L71.352931,19.2318534 L71.352931,30.5702155 L71.352931,31.9809914 L71.352931,47.2365948 L71.352931,48.6478017 L71.352931,58.0831466 L35.3275,58.0831466 L35.3275,48.6478017 Z" id="Fill-1" fill="#000000"></path>
                <polygon id="Fill-2" fill="#000000" points="34.6956897 27.3612069 72.0810345 27.3612069 72.0810345 26.0043103 34.6956897 26.0043103"></polygon>
                <polygon id="Fill-3" fill="#000000" points="34.6956897 35.5034483 72.0810345 35.5034483 72.0810345 34.1465517 34.6956897 34.1465517"></polygon>
                <polygon id="Fill-4" fill="#000000" points="34.6956897 43.6452586 72.0810345 43.6452586 72.0810345 42.2883621 34.6956897 42.2883621"></polygon>
                <polygon id="Fill-5" fill="#000000" points="34.6956897 51.787069 72.0810345 51.787069 72.0810345 50.4301724 34.6956897 50.4301724"></polygon>
                <polygon id="Fill-6" fill="#000000" points="6.27517241 71.9693103 1.81094828 76.4477586 1.81094828 71.9693103 0.000172413793 71.9693103 0.000172413793 81.964569 1.81094828 81.964569 1.81094828 77.29 6.45836207 81.964569 8.67560345 81.964569 3.59413793 76.7701724 8.45103448 71.9693103"></polygon>
                <polygon id="Fill-7" fill="#000000" points="11.5156466 81.9647414 11.5156466 71.9694828 18.1984052 71.9694828 18.1984052 73.4009483 13.2846121 73.4009483 13.2846121 76.1664655 17.9035776 76.1664655 17.9035776 77.5987931 13.2846121 77.5987931 13.2846121 80.5332759 18.1984052 80.5332759 18.1984052 81.9647414"></polygon>
                <polygon id="Fill-8" fill="#000000" points="28.5053017 71.9692672 30.2035776 71.9692672 30.2035776 81.9645259 28.8557328 81.9645259 23.4652155 74.9593534 23.4652155 81.9645259 21.7803017 81.9645259 21.7803017 71.9692672 23.1281466 71.9692672 28.5053017 78.9602155"></polygon>
                <polygon id="Fill-9" fill="#000000" points="40.9916379 71.9692672 42.6899138 71.9692672 42.6899138 81.9645259 41.3425 81.9645259 35.9515517 74.9593534 35.9515517 81.9645259 34.2666379 81.9645259 34.2666379 71.9692672 35.6144828 71.9692672 40.9916379 78.9602155"></polygon>
                <polygon id="Fill-10" fill="#000000" points="55.3921121 71.9692672 51.3343534 78.0054741 51.3343534 81.9645259 49.5235776 81.9645259 49.5235776 78.0054741 45.4671121 71.9692672 47.5304741 71.9692672 50.4222845 76.4890948 53.32875 71.9692672"></polygon>
                <g id="Group-38" transform="translate(46.982759, 71.727155)">
                    <path d="M17.5275862,10.0553017 C16.8581897,9.84883621 16.2892241,9.55443966 15.8219828,9.1699569 L16.4396552,7.85142241 C16.9258621,8.21521552 17.4340517,8.48461207 17.962931,8.65831897 C18.4909483,8.83159483 19.0693966,8.91780172 19.6965517,8.91780172 C20.3892241,8.91780172 20.925431,8.79625 21.3038793,8.55271552 C21.6836207,8.30961207 21.8728448,7.96780172 21.8728448,7.52771552 C21.8728448,7.15400862 21.6969828,6.86650862 21.3461207,6.66521552 C20.9948276,6.46349138 20.4172414,6.27469828 19.6116379,6.09581897 C18.3577586,5.82469828 17.4452586,5.47383621 16.875,5.04323276 C16.3038793,4.61262931 16.0185345,3.98547414 16.0185345,3.16176724 C16.0185345,2.5725431 16.1775862,2.04840517 16.4952586,1.58935345 C16.8133621,1.13116379 17.2655172,0.770818966 17.850431,0.509181034 C18.4349138,0.246681034 19.1116379,0.115646552 19.8788793,0.115646552 C20.5810345,0.115646552 21.2478448,0.220818966 21.8797414,0.431594828 C22.5112069,0.64237069 23.0288793,0.934612069 23.4301724,1.30831897 L22.8275862,2.62857759 C21.937931,1.91737069 20.9547414,1.56176724 19.8788793,1.56176724 C19.2331897,1.56176724 18.7228448,1.6949569 18.3487069,1.96219828 C17.9741379,2.22814655 17.7875,2.59150862 17.7875,3.04926724 C17.7875,3.44280172 17.9534483,3.74237069 18.2857759,3.94797414 C18.6172414,4.15443966 19.1862069,4.34581897 19.9913793,4.52383621 C20.824569,4.72038793 21.5030172,4.93288793 22.0267241,5.16219828 C22.5508621,5.39150862 22.9534483,5.68719828 23.2340517,6.04668103 C23.5155172,6.4074569 23.6560345,6.85918103 23.6560345,7.40142241 C23.6560345,8.00056034 23.4961207,8.52211207 23.1780172,8.96737069 C22.8599138,9.41133621 22.4008621,9.75573276 21.8021552,9.99840517 C21.2030172,10.2423707 20.4969828,10.3639224 19.6823276,10.3639224 C18.9150862,10.3639224 18.1961207,10.2609052 17.5275862,10.0553017" id="Fill-11" fill="#000000"></path>
                    <polygon id="Fill-13" fill="#000000" points="29.6866379 10.2375862 29.6866379 1.73025862 26.4293103 1.73025862 26.4293103 0.242327586 34.7823276 0.242327586 34.7823276 1.73025862 31.5107759 1.73025862 31.5107759 10.2375862"></polygon>
                    <polygon id="Fill-15" fill="#000000" points="37.9074569 10.2375862 37.9074569 0.242327586 44.5902155 0.242327586 44.5902155 1.6737931 39.6764224 1.6737931 39.6764224 4.43931034 44.2953879 4.43931034 44.2953879 5.87163793 39.6764224 5.87163793 39.6764224 8.80612069 44.5902155 8.80612069 44.5902155 10.2375862"></polygon>
                    <polygon id="Fill-17" fill="#000000" points="55.8597845 0.242112069 57.6998707 0.242112069 53.2490086 10.2373707 51.7748707 10.2373707 47.3244397 0.242112069 49.2059052 0.242112069 52.5334914 7.96323276"></polygon>
                    <polygon id="Fill-19" fill="#000000" points="60.6706034 10.2375862 60.6706034 0.242327586 67.3533621 0.242327586 67.3533621 1.6737931 62.439569 1.6737931 62.439569 4.43931034 67.0581034 4.43931034 67.0581034 5.87163793 62.439569 5.87163793 62.439569 8.80612069 67.3533621 8.80612069 67.3533621 10.2375862"></polygon>
                    <polygon id="Fill-21" fill="#000000" points="77.6611207 0.242112069 79.3593966 0.242112069 79.3593966 10.2373707 78.0115517 10.2373707 72.6210345 3.23219828 72.6210345 10.2373707 70.9361207 10.2373707 70.9361207 0.242112069 72.2835345 0.242112069 77.6611207 7.23306034"></polygon>
                    <g id="Group-25" transform="translate(82.758621, 0.000000)">
                        <mask id="mask-2" fill="white">
                            <use xlink:href="#path-1"></use>
                        </mask>
                        <g id="Clip-24"></g>
                        <path d="M1.81965517,10.0553017 C1.15025862,9.84883621 0.581724138,9.55443966 0.114482759,9.1699569 L0.732155172,7.85142241 C1.21793103,8.21521552 1.72612069,8.48461207 2.25543103,8.65831897 C2.78301724,8.83159483 3.36146552,8.91780172 3.98862069,8.91780172 C4.68172414,8.91780172 5.2175,8.79625 5.59637931,8.55271552 C5.97568966,8.30961207 6.16491379,7.96780172 6.16491379,7.52771552 C6.16491379,7.15400862 5.98905172,6.86650862 5.63818966,6.66521552 C5.28689655,6.46349138 4.70931034,6.27469828 3.90413793,6.09581897 C2.64982759,5.82469828 1.73775862,5.47383621 1.16706897,5.04323276 C0.595948276,4.61262931 0.310603448,3.98547414 0.310603448,3.16176724 C0.310603448,2.5725431 0.469655172,2.04840517 0.787327586,1.58935345 C1.10586207,1.13116379 1.55801724,0.770818966 2.1425,0.509181034 C2.72698276,0.246681034 3.40413793,0.115646552 4.17094828,0.115646552 C4.87310345,0.115646552 5.54034483,0.220818966 6.17224138,0.431594828 C6.80327586,0.64237069 7.32094828,0.934612069 7.72267241,1.30831897 L7.11965517,2.62857759 C6.23043103,1.91737069 5.24681034,1.56176724 4.17094828,1.56176724 C3.52525862,1.56176724 3.01491379,1.6949569 2.64077586,1.96219828 C2.2662069,2.22814655 2.07956897,2.59150862 2.07956897,3.04926724 C2.07956897,3.44280172 2.24551724,3.74237069 2.57827586,3.94797414 C2.90931034,4.15443966 3.47827586,4.34581897 4.28344828,4.52383621 C5.11663793,4.72038793 5.79508621,4.93288793 6.3187931,5.16219828 C6.84293103,5.39150862 7.24594828,5.68719828 7.52612069,6.04668103 C7.80758621,6.4074569 7.94810345,6.85918103 7.94810345,7.40142241 C7.94810345,8.00056034 7.78818966,8.52211207 7.47008621,8.96737069 C7.15241379,9.41133621 6.69293103,9.75573276 6.09465517,9.99840517 C5.49551724,10.2423707 4.78948276,10.3639224 3.97439655,10.3639224 C3.20758621,10.3639224 2.48862069,10.2609052 1.81965517,10.0553017" id="Fill-23" fill="#000000" mask="url(#mask-2)"></path>
                    </g>
                    <g id="Group-28" transform="translate(0.000000, 18.103448)">
                        <mask id="mask-4" fill="white">
                            <use xlink:href="#path-3"></use>
                        </mask>
                        <g id="Clip-27"></g>
                        <polygon id="Fill-26" fill="#000000" mask="url(#mask-4)" points="3.48047414 9.91387931 3.48047414 1.07293103 0.065387931 1.07293103 0.065387931 0.109137931 8.03866379 0.109137931 8.03866379 1.07293103 4.62357759 1.07293103 4.62357759 9.91387931"></polygon>
                    </g>
                    <g id="Group-31" transform="translate(11.206897, 18.103448)">
                        <mask id="mask-6" fill="white">
                            <use xlink:href="#path-5"></use>
                        </mask>
                        <g id="Clip-30"></g>
                        <polygon id="Fill-29" fill="#000000" mask="url(#mask-6)" points="0.0601724138 9.91387931 0.0601724138 0.109137931 6.25715517 0.109137931 6.25715517 1.04577586 1.17612069 1.04577586 1.17612069 4.46086207 5.98215517 4.46086207 5.98215517 5.4112931 1.17612069 5.4112931 1.17612069 8.97724138 6.25715517 8.97724138 6.25715517 9.91387931"></polygon>
                    </g>
                    <g id="Group-34" transform="translate(20.258621, 18.103448)">
                        <mask id="mask-8" fill="white">
                            <use xlink:href="#path-7"></use>
                        </mask>
                        <g id="Clip-33"></g>
                        <path d="M2.88168103,6.45719828 L7.20581897,6.45719828 L5.04418103,1.41711207 L2.88168103,6.45719828 Z M8.67909483,9.91409483 L7.60538793,7.39383621 L2.48211207,7.39383621 L1.39461207,9.91409483 L0.223491379,9.91409483 L4.53426724,0.108922414 L5.52564655,0.108922414 L9.83556034,9.91409483 L8.67909483,9.91409483 Z" id="Fill-32" fill="#000000" mask="url(#mask-8)"></path>
                    </g>
                    <g id="Group-37" transform="translate(33.189655, 18.103448)">
                        <mask id="mask-10" fill="white">
                            <use xlink:href="#path-9"></use>
                        </mask>
                        <g id="Clip-36"></g>
                        <polygon id="Fill-35" fill="#000000" mask="url(#mask-10)" points="8.50659483 0.109094828 9.44323276 0.109094828 9.44323276 9.91383621 8.39711207 9.91383621 8.39711207 2.62935345 5.21564655 9.91383621 4.41737069 9.91383621 1.20788793 2.68452586 1.2225431 9.91383621 0.175560345 9.91383621 0.175560345 0.109094828 1.11176724 0.109094828 4.83030172 8.56426724"></polygon>
                    </g>
                </g>
            </g>
        </g>
    </g>
</svg>