<svg fill="none" xmlns="http://www.w3.org/2000/svg" viewBox="0 0 443 56"><path d="M94.327 38.965a.208.208 0 00.201-.207.203.203 0 00-.2-.206h-.434v.413h.433zm-1.03-.914c0-.062.05-.118.119-.118h1.018c.39 0 .773.313.773.813 0 .388-.214.582-.421.7l.251.608a.117.117 0 01-.106.168h-.428c-.05 0-.1-.043-.113-.087l-.232-.663h-.246v.632c0 .062-.05.118-.119.118h-.377a.119.119 0 01-.12-.118v-2.056.003zm.867 2.744c.949 0 1.712-.77 1.712-1.711 0-.942-.76-1.705-1.712-1.705a1.7 1.7 0 00-1.713 1.705 1.71 1.71 0 001.713 1.71zm0-3.967a2.265 2.265 0 012.266 2.256 2.262 2.262 0 01-4.525 0 2.262 2.262 0 012.259-2.255zm-64.967 6.917c-1.832.785-3.438.06-5.01-.632-2.353-1.036-4.672-2.15-7-3.247a25.657 25.657 0 01-8.481-6.382c-1.546-1.767-2.728-3.719-3.708-5.805-.78-1.655-.726-3.485-.252-5.162.814-2.865 2.467-5.295 4.318-7.657 2.539-3.247 5.904-5.224 9.474-7.01 2.331-1.17 4.603-2.462 6.988-3.51 1.304-.572 2.784-.76 4.19-1.104 1.809-.444 3.603-.998 5.441-1.27 2.763-.413 5.556-.613 8.334-.92 1.38-.153 2.756-.463 4.135-.478 2.552-.029 5.107.115 7.658.168 1.398.029 2.803-.028 4.198.044 1.056.057 2.109.213 3.149.404 2.363.431 4.745.804 7.07 1.395 2.197.56 4.355 1.298 6.48 2.093 2.34.872 4.66 1.817 6.913 2.887 1.382.657 2.68 1.539 3.915 2.455 2.429 1.796 4.877 3.585 7.142 5.575.937.82 1.468 2.12 2.093 3.256.443.807.77 1.683 1.081 2.553.402 1.129.663 2.264.333 3.497-.276 1.026-.361 2.105-.556 3.156-.537 2.9-2.473 4.999-4.32 7.073-1.738 1.948-3.828 3.553-6.075 4.945-1.005.626-1.825 1.545-2.8 2.234-.42.297-1.03.322-1.533.519-1.304.513-2.577 1.12-3.903 1.564a75.087 75.087 0 01-5.584 1.648c-1.247.316-2.564.354-3.814.664-1.672.413-3.3.997-4.962 1.448a9.074 9.074 0 01-2.1.278c-2.014.05-4.037.144-6.045.038-2.03-.107-4.07-.316-6.062-.695-1.216-.231-2.124-1.195-2.586-2.333-1.103-2.694-.345-5.24.579-7.858a37.822 37.822 0 013.264-6.97c.688-1.138 1.562-2.167 2.367-3.237 1.059-1.404 2.758-1.642 4.254-2.19 2.712-.991 5.568-1.216 8.419-1.032 2.466.16 4.914.591 7.371.901.164.022.324.063.487.069.164.003.327-.025.553-.241-.98-.37-1.945-.782-2.94-1.098-2.901-.92-5.823-1.77-8.714-2.724-.528-.176-1.251-.407-1.267-1.24 4.597-.994 9.198-.215 13.773-.597-5.197-1.423-10.448-2.53-15.897-2.818-.421-.932.006-1.577.855-2.165 1.062-.732 2.049-1.567 3.054-2.534-.418.066-.842.113-1.254.204-2.991.67-5.992 1.304-8.968 2.049-1.235.31-2.41.857-3.604 1.317-1.713.657-3.265-.17-4.883-.479-3.265-.626-6.417-1.896-9.823-1.702-.091.007-.176.041-.302.07l4.123 3.49-.098.441-10.944 2.61.047.37c3.843-.773 7.67-.601 11.598.206-.506.29-.993.619-1.518.866-2.007.945-4.04 1.84-6.036 2.81-.638.309-1.194.794-1.753 1.253 6.41-1.704 12.849-3.09 19.495-3.268.166-.003.339.265.509.413-1.04 1.054-2.027 2.06-3.026 3.056a.94.94 0 01-.487.253c-2.483.388-4.997.629-7.445 1.167-3.352.738-6.668 1.66-9.976 2.577-2.41.667-4.799 1.414-7.168 2.215-.603.203-1.094.738-1.876 1.292-.355-.035-.474-.616-.248-1.03.471-.86 1.134-1.613 1.68-2.44.325-.484.463-1.131.871-1.51 1.081-1.004 2.235-1.93 3.407-2.83 1.2-.92 2.457-1.771 3.777-2.72-4.547.645-8.956 1.274-13.37 1.878-.218.028-.47-.179-.809-.323 1.085-1.254 2.203-2.314 3.633-3.059 1.075-.56 2.03-1.36 3.127-1.864 1.184-.548 2.463-.91 3.72-1.289a269.426 269.426 0 016.08-1.72c.393-.107.818-.1 1.509-.179-2.988-2.061-6.084-3.03-9.465-3.381.38-1.392 1.534-1.508 2.54-1.664 3.801-.598 7.61-.657 11.403.14 3.324.698 6.642 1.424 9.977 2.062.477.09 1.08-.166 1.555-.404 2.768-1.389 5.754-1.883 8.783-2.255 2.825-.344 5.63-.848 8.462-1.095 1.69-.147 3.444-.453 5.119.263.223.094.503.06.798.178-2.564 1.27-4.62 3.166-6.813 5.052 1.87.41 3.63.738 5.358 1.186 2.68.697 5.351 1.435 8 2.24.808.247 1.572.706 2.279 1.179a63.033 63.033 0 013.65 2.655c.34.263.541.707.708 1.19-4.132-1.43-8.32-1.771-12.827-1.58.87.444 1.552.803 2.24 1.141 1.961.951 3.988 1.793 5.87 2.875 1.32.76 2.48 1.817 3.652 2.809.273.231.308.738.452 1.117-.408.04-.848.194-1.225.106a205.233 205.233 0 01-6.524-1.652c-4.987-1.357-10.087-1.182-15.165-1.048-3.78.1-6.184 2.522-8.141 5.44-.374.56-.51 1.276-.764 1.915a.693.693 0 01-.23.31c-1.564.982-1.668 2.611-1.728 4.166-.047 1.236.195 2.477.312 3.72.09.944.813 1.27 1.567 1.354 2.235.256 4.478.506 6.722.585 1.442.047 2.9-.182 4.34-.35 3.607-.423 7.032-1.552 10.331-2.985 2.25-.976 4.308-2.387 6.543-3.4 2.001-.907 3.327-2.634 5.112-3.77 2.76-1.754 3.872-4.535 4.531-7.444.321-1.408.073-3.094-.399-4.495-.666-1.971-1.637-3.88-2.737-5.653-1.376-2.215-3.312-3.913-5.734-5.024-2.338-1.07-4.6-2.333-6.995-3.256-2.728-1.048-5.48-2.096-8.45-2.346-.917-.078-1.803-.444-2.721-.566-3.205-.429-6.407-.957-9.628-1.155-2.746-.168-5.521-.028-8.27.141-2.14.132-4.271.479-6.392.81-1.266.2-2.51.56-3.768.839-1.706.381-3.453.635-5.11 1.163-3.987 1.27-7.968 2.572-11.5 4.927-1.637 1.089-3.277 2.152-4.61 3.613-.355.388-.726.782-.993 1.23-.908 1.526-1.97 3-2.605 4.635-.905 2.337-.685 4.69.579 6.96 1.797 3.229 4.282 5.75 7.368 7.758 1.213.788 2.282 1.792 3.491 2.587 1.895 1.248 3.812 2.477 5.81 3.547.707.379 1.044.704.975 1.555" fill="#FFDA00"/><path d="M44.751 51.146c-.471.41-.789.854-1.216 1.026-2.26.9-4.522 1.81-6.835 2.559-1.36.44-2.796.337-4.147-.273-1.405-.631-1.854-2.383-1.474-4.517.493-2.762 1.832-5.133 3.161-7.513 1.398-2.503 2.778-5.027 4.349-7.423 1.43-2.18 3.18-4.126 5.285-5.725 1.408-1.063 2.753-2.208 4.173-3.256.34-.25.868-.253 1.31-.372l.18.272c-1.367 1.946-2.772 3.866-4.085 5.85-.823 1.241-1.333 2.724-2.294 3.834-1.424 1.652-1.864 3.714-2.762 5.575-.98 2.033-1.967 4.116-1.785 6.51.11 1.454.569 2.136 1.98 2.48 1.272.31 2.551.597 4.157.973" fill="#FFDA00"/><path d="M410.373 24.512v.074l.324.163v-.34l-.375.103h.051zm3.154 5.396a.95.95 0 00.301 0 .24.24 0 00.075-.091.242.242 0 00.021-.116c0-.074-.11-.14-.184-.222a8.09 8.09 0 00-.213.437v-.008zm16.07-8.315c-.331.502-.331.502.081.532 0-.177.199-.377-.081-.532zm-21.054 11.582l.507-.798-.066-.081-.331.31c-.051.067-.088.148-.132.214h-.052l.074.377v-.022zm4.411 2.536c-.162-.104-.28-.178-.383-.26-.103-.08 0-.103 0-.147l-.529.325v.074c.162 0 .316.044.47.044.155.009.309.009.464 0l-.022-.036zm-4.47.317v.082c0 .022.176.162.265.162.257 0 .507-.059.793-.096-.044-.089-.066-.192-.124-.222a2.83 2.83 0 00-.464-.148c0 .281-.25.23-.455.222h-.015zm10.939-15.123l-.28-.162c-.419.31-.992.355-1.396.739l-.64.362v.118c-.125.148-.301.266-.316.4 0 .317-.323.384-.463.583a3.03 3.03 0 00-.235.407c.257.192 0 .37-.059.429-.302.192-.118.428-.125.657 0 .43-.081.85-.125 1.28l-.199 1.7c-.073.65-.139 1.3-.213 1.95-.073.651-.184 1.42-.272 2.13-.051.428-.073.857-.147 1.278-.044.288-.154.562-.22.85a1.027 1.027 0 000 .222c-.055.49-.075.985-.059 1.478 0 .274-.133.503-.074.74 0 0 0 .058-.066.073a1.334 1.334 0 01-.735.252 4.39 4.39 0 00-.978.236h-.573c-.353.06-.735.155-1.059.207-.323.052-.595 0-.889.074a5.859 5.859 0 01-1.015.052.228.228 0 00-.125.037c-.316.325-.735.258-1.11.303-.176 0-.353.096-.478-.104l-.176.096s-.059.06-.081.06l-.809-.104h-.22a.527.527 0 01-.506-.382.533.533 0 01-.016-.224c0-.4.11-.791.147-1.19.037-.4.051-.895.088-1.346 0-.303.103-.606.147-.909.059-.517.103-1.035.169-1.545.066-.51.169-.983.213-1.478.019-.33.019-.66 0-.99a7.068 7.068 0 00-.044-.976c-.044-.31-.139-.68.162-.968.059-.06-.044-.252 0-.37.096-.584.221-1.16.301-1.737.228-1.707.442-3.415.669-5.122.074-.57.199-1.13.28-1.7.044-.325 0-.665.066-.99.066-.326.169-.828.25-1.242v-.303c.072-.115.156-.221.25-.318a.463.463 0 010-.547c.081-.096.117-.222.198-.318a4.6 4.6 0 01.375-.377.23.23 0 01.191-.037c.399.133.825.156 1.235.067.5-.052 1.008-.067 1.515-.09h.044c.375-.443.735.067 1.103 0a10.75 10.75 0 011.367 0h.618c.205 0 .463-.073.735-.088.246-.018.493-.003.735.045.228.078.422.232.551.436.218.241.465.455.735.635 0 0 .162-.044.243-.081.412-.207.816-.429 1.235-.62a2.89 2.89 0 01.478-.104l.529-.178h.11c.177-.074.361-.17.552-.229.191-.059.595-.177.897-.244.173-.04.351-.057.529-.051.232.027.467-.014.676-.119.111-.066.294 0 .441 0 .249-.015.496-.057.735-.126a2.935 2.935 0 011.331-.051c.245.02.491.02.735 0a2.242 2.242 0 011.868.68c.241.24.507.453.793.636a3 3 0 01.662.606c.13.134.273.256.426.362l-.066.133c.389.62.64 1.32.735 2.047.059.281-.073.636.228.813a3.812 3.812 0 00-.073.621c0 .503.095.99.103 1.479a2.71 2.71 0 01-.147.665 1.374 1.374 0 00-.059.377c.025.209.062.416.11.62a.403.403 0 00-.147.318v1.072c0 .333-.103.688-.117 1.028-.015.34 0 .739 0 1.153 0 .414-.052.687-.081 1.035-.03.347-.044.532-.089.79-.044.26-.102.473-.154.74.243.11.25.221 0 .643h.118a15.66 15.66 0 00-.243 1.64c-.115.89-.135 1.79-.059 2.684l-.176.044v1.604c0 .525 0 1.072.044 1.693-.441-.045-.816-.09-1.191-.119a3 3 0 00-.36.045c-.449 0-.89.044-1.331.051h-1.014a.362.362 0 01-.155 0 1.682 1.682 0 00-1.044 0 23.597 23.597 0 01-3.381.2c-.61.037-.735-.11-.669-.813a74.75 74.75 0 01.235-2.957c.096-.968.228-3.03.346-4.117.044-.399.117-.798.161-1.197.055-.335.07-.675.044-1.013 0-.207.147-.34.067-.554a.96.96 0 010-.643c.198-.459-.17-.902 0-1.338-.258-.407.125-.798 0-1.212a3.611 3.611 0 01-.162-1.043.964.964 0 00-.588-.916 3.405 3.405 0 00-.735-.296 5.77 5.77 0 00-.692-.14.54.54 0 00-.205.059v.081m-17.32-4.05l.47-.436-.051-.06c-.199.104-.426.185-.419.496zm1.551 3.629l.059-.037c0-.17 0-.333-.052-.495l-.294.266.287.266zm-11.836 13.74c-.044-.088-.059-.214-.117-.236-.25-.103-.383.089-.515.237.198.347.39 0 .632 0zm4.933-13.614c.169-.096.47-.148.375-.407-.096-.259-.309-.273-.471-.414a.67.67 0 01-.073.074c.051.244.11.488.169.74v.007zm-1.551 9.697c.264.118.463.06.603-.273.058-.148-.074-.37-.118-.555h-.118c-.132.274-.257.547-.389.828h.022zm1.999.57l.081.073a3.77 3.77 0 00.522-.354c.177-.163.169-.48.463-.555v-.14c.049-.144.106-.284.17-.422 0-.037.139-.037.147-.059 0-.177 0-.355.036-.54l-.331.2.067.163c-.177.192-.441.34-.464.525-.051.421-.588.495-.58.916l-.037.037c-.037.037-.074.104-.11.155h.036zm-6.983.206c.074-.038.145-.083.213-.133a.32.32 0 01.419 0c.044 0 .044.193.066.193.301 0 .412.25.588.436.074-.074.14-.126.191-.185a.358.358 0 01.086-.105.343.343 0 01.385-.035.79.79 0 00.823-.104c.313-.205.595-.454.838-.74.348-.433.599-.937.735-1.478.074-.192.162-.384.236-.576.073-.192.11-.281.169-.429a5.651 5.651 0 00-.927.237c-.39.134-.788.248-1.191.34-.356.043-.714.067-1.073.074a1.01 1.01 0 00-.345.118 1.39 1.39 0 01-.442.2 1.002 1.002 0 00-.867.576.827.827 0 00-.103.28 3.511 3.511 0 000 .74c.049.204.121.403.213.591h-.014zm-9.484-.148a.45.45 0 01-.103-.517.654.654 0 000-.377 1.158 1.158 0 01.419-1.145c-.019-.405.121-.8.39-1.102a4.18 4.18 0 00.441-.517l.662-.806a5.363 5.363 0 011.668-1.316 6.52 6.52 0 01.853-.524 6.357 6.357 0 011.088-.451c.162-.032.322-.074.478-.126.264-.111.54-.188.823-.23.471 0 .831-.361 1.28-.406.11 0 .198-.118.308-.155.478-.17.949-.355 1.426-.488.263-.041.529-.069.794-.081.493-.089.986-.207 1.471-.31a1.24 1.24 0 01.433-.045c.493.089.839-.355 1.302-.355.138.008.275.023.411.045l.427-.318a1.16 1.16 0 00.331-1.279 1.969 1.969 0 00-.53-.872c-.051-.037-.11-.118-.154-.11-.441.058-.735-.356-1.154-.37a3.252 3.252 0 00-1.029-.082c-.317.096-.611.288-.927.392-.316.104-.426.384-.735.355a1.65 1.65 0 01-.059.229c-.161.296-.331.576-.5.865a.798.798 0 01-.735.465c-.218 0-.435.04-.639.119a6.803 6.803 0 01-2.096.34c-.342.03-.686.03-1.029 0a7.14 7.14 0 00-1.522.133c-.426.044-.852.066-1.257.088v-.37h-.088c0 .082-.051.163-.081.274l-.316-.118.206-.126c-.147-.14-.096-.391.11-.569.044-.037.111-.118.096-.147-.081-.2 0-.304.14-.437a.638.638 0 00.08-.244 5.08 5.08 0 01.221-.813c.11-.258.316-.48.448-.739.133-.258.214-.495.486-.62.044 0 .073-.09.08-.148.091-.393.305-.745.611-1.006a5.48 5.48 0 00.382-.45s.044-.082.073-.082c.324 0 .5-.273.736-.45.235-.178.22-.208.33-.304a3.948 3.948 0 011.632-.96c.14-.038.302 0 .449-.038.39-.103.779-.229 1.176-.325.167-.047.341-.064.515-.052a2.71 2.71 0 001.397-.347c.176-.081.308-.096.396.11a3.462 3.462 0 011.471-.295 7.71 7.71 0 001.227-.096c.192 0 .39-.177.589 0 .044.037.154 0 .22 0 .39-.146.814-.174 1.22-.081.405.103.875-.052 1.265.059.595.17 1.228-.037 1.801.325.25.155.573.215.684.421l.61.23c.285.08.565.178.838.295.271.155.532.327.779.518.133.088.25.192.383.273a.635.635 0 01.264.429c.119.258.259.505.419.739.076.173.133.354.169.54.062.204.114.411.155.62.028.194.045.389.051.584 0 .296.052.592.066.887 0 .429.037.858.052 1.28v.125c0 .31.228.68-.228.872h.382l-.191.214c.169.074.169.17 0 .318s0 .214-.037.303c-.117.318.206.695-.139.998.286.31 0 .628 0 .954a1.4 1.4 0 01-.317 1.027s.037.177.059.244c0 .2-.044.392-.073.576a3.967 3.967 0 01-.111.43l-.301 1.285v.067c0 .022.11.229.074.295-.111.2 0 .51-.287.621.044.074.081.148.14.23l-.302.517h.066c0 .177-.036.347-.051.525a.816.816 0 000 .184c0 .052.059.104.059.156-.067.487-.147.968-.214 1.478a8.526 8.526 0 01-.103.887c-.095.356-.066.734.081 1.072.081.192 0 .458 0 .687 0 .052.118.103.177.163.059.059.294.251.088.458v.103c0 .296-.051.326-.353.333-.419 0-.838.096-1.257.11-.419.016-.735-.044-1.066-.058a3.253 3.253 0 00-.537 0c-.286 0-.595.2-.852.133-.655-.148-1.213.244-1.838.222a8.388 8.388 0 00-1.287.096 1.796 1.796 0 00-.36.133.842.842 0 01-1.051-.193 1.17 1.17 0 01-.221-.739c0-.244-.095-.28-.316-.207-.782.29-1.54.643-2.264 1.057a2.87 2.87 0 01-.676.193h-.111c-.485.406-1.132.325-1.676.547-.228.096-.544 0-.735.162-.191.163-.573.118-.831.259a1.13 1.13 0 01-.367 0c-.214.044-.43.074-.647.089-.397 0-.794-.052-1.176-.074a5.216 5.216 0 01-1.522-.466 2.66 2.66 0 01-.824-.554c-.316-.296-.588-.643-.882-.961-.103-.104-.25-.163-.323-.274a7.575 7.575 0 01-.507-.85c-.17-.303-.287-.635-.478-.924a2.348 2.348 0 01-.25-.901c-.052-.26-.133-.51-.206-.74a3.847 3.847 0 01-.162-.576c0-.104.074-.23.132-.384m-9.123-1.013c.044.096.074.177.11.266.111-.133.206-.244.294-.362l-.051-.067-.353.163zm-4.83.273a.3.3 0 00.103.215c.074.05.161.078.25.081 0 0 .066-.081.066-.133a.17.17 0 00-.036-.066.168.168 0 00-.059-.045 2.976 2.976 0 00-.324-.052zm8.087-6.4c-.066.184-.11.325-.155.465h.067c.051-.14.47-.133.088-.488v.022zm-.559 4.205h-.081c-.242.178-.272.288-.059.488l.14-.458v-.03zm1.514-12.078l.368.193c-.169-.31-.169-.31.14-.4-.111-.221-.111-.221-.508.207zm-8.086 15.22c.073-.407.073-.407-.449-.289l.449.288zm-.419 3.54l.492.222c.184-.178.192-.252-.036-.436-.228-.185-.265.184-.456.214zm4.852-8.397l-.184-.48c-.198.222-.338.392-.485.562l.059.051.61-.133zm1.896 10.348c-.308.045-.404-.17-.477-.443l-.214.162c.039.048.08.092.125.133l-.632.355c.794.096 1.662-.148 1.691-.428-.206 0-.456-.104-.493.221zm6.462-20.474c.056.178.09.361.103.547 0 .525-.051 1.042-.066 1.567 0 .185.044.37.044.554 0 .185-.044.237-.044.355.014.1.041.196.081.288l-.581.503c-.294.259-.632.133-.963.118h-1.117a1.09 1.09 0 00-.294.096 6.373 6.373 0 01-.934.274c-.25.037-.441.148-.441.406a2.65 2.65 0 010 .488c-.028.113-.07.223-.125.325.044.214.066.432.066.65-.051.481-.139.954-.228 1.427 0 .111-.117.207-.147.318a1.58 1.58 0 00-.051.362c-.001.216.016.43.051.643-.125.052-.279.111-.147.333v.052c-.161.177-.044.406-.095.606a4.829 4.829 0 00-.081.739c-.044.377-.088.74-.14 1.13a1.605 1.605 0 01-.103.54c-.162.296 0 .547 0 .821a.637.637 0 010 .288.385.385 0 00.184.48c.225.123.484.165.735.119a90.525 90.525 0 011.978-.266c.181-.037.366-.052.551-.044a.574.574 0 01.424.3.584.584 0 01.017.52l-.147.251c.037.082.125.178.11.266-.044.289-.125.57-.198.887 0 0 .051 0 .051.037s.103.237 0 .4a1.316 1.316 0 00-.066.517c.029.247.014.497-.044.739-.125.266.125.429.052.658-.074.229 0 .37-.147.54-.148.17 0 .221 0 .332a2.13 2.13 0 01-.074.584.66.66 0 01-.375.273c0 .06 0 .14-.073.178-.184.157-.38.298-.589.421-.227.118-.507.148-.735.274-.228.125-.522 0-.772 0-.073 0-.139.066-.213.088a.9.9 0 01-.323.104c-.133 0-.258-.104-.368.051a1.225 1.225 0 01-.25-.118c-.103.281-.389.362-.676.407-.287.044-.632.081-.948.118-.449.06-.897.14-1.338.155-.206 0-.405-.155-.611-.2a4.39 4.39 0 00-.624 0 3.053 3.053 0 01-.368 0 12.886 12.886 0 01-1.507-.177 6.088 6.088 0 01-1.147-.458 3.184 3.184 0 01-1.073-1.027 2.834 2.834 0 01-.324-.606 11.459 11.459 0 01-.529-1.287 3.588 3.588 0 01-.051-.739.417.417 0 00-.103-.162v-.584c0-.17 0-.473-.044-.74a4.187 4.187 0 01-.059-.642c0-.555-.052-1.117-.052-1.671s0-1.183.052-1.774v-.939c.024-.212.063-.421.117-.628.12-.248.161-.526.118-.798-.037-.126.066-.274.073-.407 0-.266-.11-.569 0-.776.192-.406.045-.805.103-1.205.059-.399.125-.739.147-1.138a1.754 1.754 0 00-.161-.525l-.213.126a.462.462 0 01-.346.122.457.457 0 01-.323-.174.246.246 0 00-.192-.037c-.264.074-.507.266-.801.126h-.059c-.169.044-.367.155-.456-.104-.088-.258-.316-.59 0-.916.081-.096.067-.274.089-.414.059-.384.103-.776.161-1.168.059-.392.147-.88.214-1.323v-.347c0-.111.095-.34.139-.51a1.66 1.66 0 00.074-.26.925.925 0 01.36-.487c.14-.096.368-.11.331-.34a5.398 5.398 0 012.61-.4v-.642c0-.377.08-.74.117-1.124.383-.384 0-.776 0-1.16.031-.274.09-.544.177-.806 0-.11.081-.214.11-.318.029-.103.081-.273.125-.436-.184-.162 0-.391.051-.606a2.13 2.13 0 01.192-.613c.08-.207.198-.392.47-.348h.051a2.467 2.467 0 011.596-.081h.103c.254-.061.512-.108.772-.14.485 0 .977-.045 1.47-.052.117 0 .235.052.353.044.382 0 .735-.044 1.139-.066.405-.023.735 0 1.059-.045a3.31 3.31 0 01.389-.037c.421-.058.849.036 1.206.266.191.148.441.222.434.525a6.53 6.53 0 01-.059.74 3.81 3.81 0 01-.184.975c-.066.163.088.45-.22.503 0 0-.044.103 0 .118.272.214.095.517.139.776a1.6 1.6 0 01-.036.998v.052c.279.155.058.495.294.739.485-.421.963 0 1.47.044.507.045.772.126 1.161.148a.69.69 0 01.714.683.7.7 0 01-.089.352 1.542 1.542 0 00-.058.458h-.059M194.027 21.26l.507-.074c-.132-.266-.213-.266-.507.074zm-3.749 10.651l.367-.325-.33-.244v.57h-.037zm20.143-13.918c.287.111.257-.177.375-.273-.037-.045-.088-.133-.103-.126-.169.074-.338.155-.272.4zm-32.177 2.728l.088.059.389-.326-.25-.221-.227.488zm-1.677 9.335l-.235.45a3.39 3.39 0 00.382-.08s.096-.119.081-.133a1.66 1.66 0 00-.228-.237zm7.741-6.298l-.058-.096c-.132.039-.26.088-.383.148-.051 0-.066.118-.095.185-.03.066.169.066.22.037.114-.081.22-.173.316-.274zm-.044-4.36a.62.62 0 00-.08.133l.264.295.287-.34-.471-.088zm9.293 17l-.044-.163c-.177 0-.353.052-.53.096-.044 0-.059.126-.125.289l.699-.222zm-2.992-20.91c0 .369.242.295.389.302l.103-.192-.492-.11zm-7.455 9.224l-.044-.074-.537.251.361.266.22-.443zm-4.22-5.618l-.499-.14.279.74c.088-.245.154-.422.22-.585v-.015zm30.796 5.551c.279-.096.61-.125.683-.524a.898.898 0 00-.683.524zm-5.551-3.444l-.786-.11v.14c.133.046.263.1.389.162.258.155.339.118.427-.192h-.03zm.611-6.054c0 .192.066.326.11.518.162-.34.536.133.654-.34l-.735-.178h-.029zm-20.232 9.661l-.132.104a1.1 1.1 0 00.221.288c.102.074.205.066.323-.074.118-.14 0-.362-.103-.577-.088.17-.147.296-.22.451l-.089-.192zm8.682-9.24c-.139-.302-.382-.45-.529-.317-.147.133-.118.318-.073.355a.46.46 0 00.602-.037zm-2.734 20.845c-.287-.459-.28-.532 0-.799-.162-.088-.449.104-.478.333-.03.23-.081.288-.096.444-.014.155.074.17.096.162.139 0 .279-.089.441-.14h.037zm4.58-20.696c-.074.155-.125.25-.169.362a.522.522 0 000 .184h.47c.228.156.375.097.529-.133l-.816-.436-.014.022zm-19.122 17.37c-.117.08-.227.118-.235.162-.033.2-.033.405 0 .606.059.222.11.215.25 0 0 0 .088 0 .096-.051.078-.132.128-.278.147-.43 0-.095-.155-.184-.25-.302l-.008.014zm9.388-9.824l.221-.229c.116-.131.224-.27.323-.414v-.177c0-.06-.139 0-.183 0-.163.1-.308.227-.427.377-.162.266-.338.244-.617.066.051.163.088.266.117.37.434-.133.434-.133.574 0l-.008.007zm25.613.318c.257 0 .529.044.808.044.28 0 .397 0 .28-.303-.052-.133-.074-.28-.11-.414a3.1 3.1 0 00-.405.23c-.132.096-.213.295-.434.17 0 0-.102.11-.139.177a.195.195 0 000 .096zm-6.212 5.987c.085-.12.152-.252.198-.392 0-.073-.117-.162-.228-.295-.11.436-.22.783-.286 1.138-.066.355.073.473.389.429 0-.111 0-.252.037-.326.206-.258.228-.45-.11-.554zm-9.682-7.051c.015.026.032.05.051.074a6.11 6.11 0 01-.617.864c-.066.067-.397.267-.537-.088l-.154.177.228.104-.044.25.073.053c.107-.12.225-.23.353-.326.346-.2.735-.377 1.051-.569.155-.088.213-.222 0-.325l-.316.163-.059-.082c.081-.088.155-.184.243-.295h-.272zm-10.851-3.696c.11-.17.169-.34.287-.407.426-.236.875-.436 1.316-.643-.103-.362-.147-.377-.405-.2l-.044.045-1.022.606-.735.436-.066-.044c-.088.104-.132.2-.206.244-.073.044-.286.14-.426.229s-.066.096-.103.148c-.037.052.125.059.169.044a1 1 0 00.287-.162 1.024 1.024 0 01.956-.296h-.008zm-2.308 15.049c.411-.066.639-.473 1.066-.347.037 0 .139-.134.169-.222.029-.089 0-.185 0-.281.044-.325.103-.643.154-.954-.206.14-.397.252-.558.385a.493.493 0 00-.14.251c0 .111 0 .259-.059.348-.154.229-.353.436-.529.65a.963.963 0 00-.111.17h.008zm15.585 3.984c-.412-.044-.816-.081-1.213-.133-.397-.052-.934-.11-1.39-.207a6.816 6.816 0 00-1.646.066 6.301 6.301 0 01-1.052-.073 3.757 3.757 0 00-2.021.059 1.026 1.026 0 01-.309 0c0 .28-.162.362-.426.221a.514.514 0 00-.28 0c-.272.052-.375-.051-.419-.317a3.74 3.74 0 01.066-1.28c.023-.26.023-.522 0-.783a.558.558 0 010-.243c.14-.424.185-.873.133-1.316.015-.638.087-1.274.213-1.9.073-.464.103-.934.088-1.404a3.99 3.99 0 01.199-.954 4.36 4.36 0 00.279-1.744c.009-.278.053-.554.132-.82a.83.83 0 000-.244c0-.045-.036-.119 0-.14.294-.393.125-.85.206-1.272.037-.203.059-.408.066-.614v-1.249c.012-.122.032-.243.059-.362.088-.473-.213-.74-.507-1.02a1.582 1.582 0 00-2.205.244c-.295.355-.633.665-.934 1.02a1.21 1.21 0 00-.243.473c-.176.658-.323 1.33-.492 1.996-.103.384-.236.739-.316 1.153-.081.414-.067.643-.125.96-.059.318-.169.74-.25 1.058-.184.798-.361 1.596-.544 2.387-.074.31-.177.613-.243.917-.066.303-.073.495-.103.739-.066.584-.11 1.168-.191 1.752a14.873 14.873 0 01-.309 1.552 1.989 1.989 0 01-.345.902 1.33 1.33 0 01-.86.51l-.853.036c-.059 0-.125-.036-.191-.044a2.504 2.504 0 00-.331 0h-.669a4.616 4.616 0 00-1.625-.163c-.088 0-.213-.096-.331-.162-.117-.067-.227.118-.301.081a1.018 1.018 0 00-.838.089c-.346.126-.735.155-1.051.259a1.996 1.996 0 01-.735 0c-.162 0-.302-.148-.464-.193a.439.439 0 00-.272 0 .353.353 0 01-.29-.064.359.359 0 01-.143-.261 1.863 1.863 0 00-.14-.554 1.918 1.918 0 010-1.057c0-.2 0-.4.044-.606a4.706 4.706 0 010-.65c.11-.644.235-1.287.353-1.93v-.059a1.95 1.95 0 00.265-.783c.044-.422.22-.836.242-1.257.049-.443.155-.878.316-1.294.057-.21.091-.425.103-.643.059-.399.103-.798.177-1.19.044-.258.139-.517.191-.739v-.318c.059-.458.117-.909.198-1.36.081-.45.191-.96.287-1.441v-.118c.257-.266.199-.629.279-.954.081-.325.162-.739.265-1.057.103-.318.25-.739.353-1.101.066-.251.066-.525.125-.784.059-.258.132-.295.176-.45.044-.156 0-.207 0-.31.111-.651.265-1.294.338-1.945a4.48 4.48 0 01.434-1.153c.072-.099.156-.188.25-.266.052.148.074.2.096.259.213-.422.544-.111.816-.119a12.81 12.81 0 012.389.097.4.4 0 00.176-.052l.486-.193c.044.148.066.237.088.318h.36c0-.25.096-.34.346-.266.25.074.499.148.735.207l.264.067a6.811 6.811 0 011.088-.133c.324.049.644.123.956.222.162.036.228.073.176.258a.621.621 0 000 .303c.089.296.111.288.353.111.308-.218.63-.416.963-.591.471-.244.949-.48 1.434-.688.36-.148.735-.229 1.095-.377a6.141 6.141 0 011.471-.258 4.823 4.823 0 011.22-.037c.051 0 .14 0 .154.059.118.236.316.133.493.14.212.021.423.054.632.096l.581.111a7.773 7.773 0 012.257.939c.273.19.521.417.735.673.147.14.272.31.412.473.435-.394.897-.757 1.382-1.087a9.11 9.11 0 012.742-1.168c.573-.125 1.147-.295 1.72-.414a1.64 1.64 0 01.566.06c.243.044.478.11.735.155.257.044.382.037.574.059.073 0 .139.074.213.081h.639c.281-.002.561.017.838.06.41.078.811.194 1.199.347.386.131.716.392.933.739.096.17.324.251.486.392.352.31.735.613 1.036.946.28.27.527.572.735.901.251.299.402.668.434 1.057a.386.386 0 00.066.252c.225.375.298.821.206 1.249.002.496.052.991.147 1.478.011.049.011.1 0 .148a1.357 1.357 0 000 .62c.059.74.044 1.435.081 2.152.063.364.105.732.125 1.101 0 .274.294.584 0 .784v.547c0 .162-.088.465-.132.739-.045.273-.14.702-.192 1.05-.051.347-.088.812-.154 1.219-.066.407-.191.843-.221 1.264a8.586 8.586 0 00-.154 1.678c.047.485-.013.975-.176 1.434 0 .081 0 .177-.059.258a.628.628 0 00-.11.207c-.022.074 0 .163 0 .193.257.258.11.54.044.805-.066.266.036.429.242.429 0 0 .052 0 .074-.052l.044.096a.35.35 0 01-.111.501.34.34 0 01-.183.046c-.471 0-.934.096-1.397.111-.25 0-.5-.052-.735-.052s-.684.06-1.029.052c-.346-.007-.846-.037-1.265-.059-.551 0-1.102-.089-1.661-.081-.559.007-1.272.081-1.904.088-.369 0-.737-.022-1.103-.066a.28.28 0 01-.198-.118 2.462 2.462 0 01-.316-.858c.029-.374.091-.745.183-1.108.066-.451.096-.91.169-1.36.037-.237.125-.459.184-.695v-.281c.022-.407.022-.814 0-1.22.037-.2.088-.399.11-.599.059-.502.103-1.012.17-1.478.044-.303.132-.606.191-.909 0-.192.044-.384.066-.576.022-.193.081-.577.095-.865.015-.289 0-.6 0-.902 0-.303.045-.57.059-.85a3.762 3.762 0 00-.044-1.811.37.37 0 010-.155c.037-.444.044-.444-.272-.799l-.154.163c-.044-.081-.125-.17-.118-.236.052-.34-.198-.43-.419-.48a1.31 1.31 0 00-1.47.539 9.055 9.055 0 00-.993 1.404 4.512 4.512 0 00-.5 1.76c0 .258-.036.517-.066.738-.029.222-.125.74-.169 1.072a1.536 1.536 0 000 .488c.025.252-.016.507-.117.74-.074.25-.074.531-.133.79-.154.68-.323 1.36-.485 2.04-.118.488-.243.976-.368 1.478-.088.326-.198.643-.264.969a6.815 6.815 0 00-.103.739c-.037.406-.074.82-.125 1.227a8.705 8.705 0 01-.191 1.146 2.715 2.715 0 01-.316.613m-73.515-20.903v-.185c-.147 0-.294-.067-.441-.081 0 0 0 .14-.059.221l.485.045h.015zm2.926 3.141c.301.222.639.081.83-.465l-.83.465zm7.204-4.102c.052-.14.074-.266-.147-.31-.22-.045-.235-.104-.36-.14a.336.336 0 00-.191 0 .171.171 0 00-.045.07.184.184 0 00-.007.084.333.333 0 00.162.111l.588.185zm-8.63 4.014l.83.044c0-.133.052-.23.066-.325.015-.096 0-.156 0-.23-.117.267-.389.304-.735.09-.059.11-.11.228-.206.42h.045zm-.331 17v.06c.081.05.154.14.235.147.203.015.407.015.61 0 .131-.004.261-.032.382-.081.059 0 .081-.119.118-.185a.178.178 0 00-.081-.06l-1.235.126-.029-.007zm-4.735-9.868c.052-.051.096-.074.103-.103a8.8 8.8 0 00.272-.968.272.272 0 00-.147-.222.3.3 0 00-.264.088 4.136 4.136 0 00-.287.474l.323.739v-.008zm6.999.207a3.96 3.96 0 01.088-.901c.121-.33.19-.677.206-1.028a2.634 2.634 0 01.235-1.375v-.11c0-.208.044-.415.044-.622a6.127 6.127 0 000-.635 2.502 2.502 0 01-.066-.503c.044-.31-.051-.458-.367-.502-.111 0-.214-.067-.316-.082-.405-.081-.618-.524-1.081-.517-.463.007-1.037-.06-1.559-.067a1.272 1.272 0 00-1.066.592 1.288 1.288 0 01-.779.643.353.353 0 00-.198.177 4.082 4.082 0 00-.206.599c-.155.606-.287 1.22-.434 1.826-.103.377-.257.739-.323 1.123a3.797 3.797 0 00-.074 1.08c.066.672.199 1.345.294 2.01.062.37.262.703.559.931.201.147.428.255.669.318.316.096.654.133.985.207a1.74 1.74 0 001.47-.207l.39-.237a1.1 1.1 0 00.353-.266c.141-.195.301-.376.478-.54a1.17 1.17 0 00.36-.857c0-.081.066-.17.088-.259l.265-.835h.051l-.066.037zm-3.668-12.41l.999-.591c.195-.121.402-.22.618-.296.39-.126.794-.207 1.191-.325.397-.118.684-.237 1.036-.303.353-.067.853-.119 1.28-.178a5.572 5.572 0 011.786.133c.221.045.419.17.632.23.338.103.691.17 1.029.295.339.126.78.325 1.162.495a4.5 4.5 0 01.544.237c.368.23.735.473 1.073.74.455.404.838.884 1.132 1.418.118.17.096.429.177.628.191.343.354.702.485 1.072.154.648.267 1.305.338 1.966.088.688.103 1.383.199 2.07.059.48.235.946.279 1.427a6.459 6.459 0 01-.096 1.057c0 .347 0 .694-.044 1.034v.052c-.25.318 0 .688-.11 1.02a.752.752 0 010 .177c-.294.644-.61 1.28-.882 1.937-.108.426-.241.846-.397 1.257a7.222 7.222 0 01-.912 1.663c-.316.332-.47.842-.823 1.108-.353.267-.39.85-.867 1.02 0 0-.059.082-.067.133a1.64 1.64 0 01-.735.961 3.597 3.597 0 00-.625.673c-.234.2-.5.36-.786.473a6.428 6.428 0 00-1.382.88c-.133.125-.361.133-.515.244a2.45 2.45 0 01-1.47.288h-.14c-.103.259-.294.081-.434.096a5.99 5.99 0 01-.735.052h-1.397c-.147 0-.294.051-.441.066a3.743 3.743 0 01-1.771-.221 6.03 6.03 0 01-1.11-.43 6.41 6.41 0 00-1.118-.746c-.073 0-.103-.17-.169-.244a3.123 3.123 0 00-.294-.229s-.118-.044-.118-.066c0-.289-.279-.23-.397-.355-.117-.126-.257-.207-.367-.325-.11-.119-.272-.096-.39.103a3.089 3.089 0 00-.309 1.146c-.044.251-.169.495-.213.739-.044.244 0 .414 0 .62-.03.217-.08.43-.147.636-.081.26-.184.51-.257.74v.362a6.39 6.39 0 01-.191.636c-.081.243-.294.51-.25.739.088.436-.28.739-.228 1.16.009.412-.025.823-.103 1.227v.503c-.088.473-.228.48-.669.606-.797.105-1.6.167-2.404.185a10.1 10.1 0 01-1.338.08h-3.396a1.329 1.329 0 00-.735.112 3.07 3.07 0 01-.53.066c-.235.052-.47.119-.735.185a4.522 4.522 0 01-.264-.458.257.257 0 01-.028-.119.26.26 0 01.028-.118c.31-.572.507-1.2.58-1.848.735-2.816 1.426-5.647 2.147-8.47.069-.183.155-.359.257-.525a.75.75 0 00.052-.28 5.909 5.909 0 01.294-1.598c.11-.384.213-.783.316-1.175.044-.177 0-.406.125-.532.125-.125.125-.458.242-.672.07-.269.112-.544.125-.821.096-.347.243-.68.353-1.02.042-.121.062-.249.059-.377a1.637 1.637 0 01.353-1.16c.125-.156.066-.459.147-.666.081-.207-.066-.613.228-.835-.169-.28.316-.495.088-.783.235-.274.118-.614.184-.924.176-.74.375-1.53.566-2.3.191-.768.353-1.367.515-2.054.073-.325.308-.599.264-.968 0-.104.184-.23.177-.348.029-.29.088-.578.176-.857 0-.303.162-.591.213-.894a.94.94 0 00-.044-.473c-.147-.436 0-.636.441-.621.096 0 .199-.052.294-.06.096-.007.331 0 .485 0 .155 0 .471-.147.736-.206.377-.111.763-.19 1.154-.237.794-.074 1.595-.074 2.389-.14.434-.037.868-.156 1.301-.207a16.632 16.632 0 011.573-.089c.25 0 .375.155.383.436.045.32.114.636.206.946m33.331 5.041c.066-.185.111-.318.162-.45l-.368.147c.081.118.125.192.206.303zm-1.47 6.29l-.059-.066-.382.318c.242.214.323.162.441-.252zm-3.507-7.303a.147.147 0 000-.059 2.339 2.339 0 00-.294-.31c-.059-.037-.176 0-.264 0-.089 0 0 .185 0 .192.168.067.34.123.514.17l.044.008zm-13.578 14.724l-.14.067c.133.229.258.458.39.68l.118-.067c-.118-.229-.243-.45-.368-.68zm6.543-.739c.131.06.27.101.412.126.119-.015.235-.047.345-.096-.323-.2-.735-.192-.735 0l-.022-.03zm8.675-13.925l-.353-.266h-.074c0 .17 0 .34.059.51l.368-.274v.03zm6.395 9.912c-.095-.407-.294-.074-.426 0s-.088.148-.132.221a.654.654 0 00.286 0 1.04 1.04 0 00.272-.221zm-2.396 7.62c.122.008.245.008.367 0 .112-.02.223-.047.331-.081v-.414a1.646 1.646 0 01-.294.067c-.389 0-.389 0-.404.436v-.008zm.985-3.651l.632.081a5.23 5.23 0 00.258-.532c0-.066 0-.163-.067-.23-.066-.066-.117 0-.176 0-.346.082-.368.466-.647.659v.022zm-11.762-4.62c-.449.333-.883.643-1.309.946a.622.622 0 00.735-.148 3.47 3.47 0 01.552-.443c.213-.118.183-.214.051-.355h-.029zm10.608-8.175a15.615 15.615 0 002.793-2.217c-.36 0-.441.465-.794.303-.088.347-.426.428-.654.628a4.336 4.336 0 01-.735.614 1.613 1.613 0 00-.618.68l.008-.008zm-9.344 11.937v-.096a2.929 2.929 0 001.941-.436c.14-.088.353-.081.47-.184a5.552 5.552 0 001.375-1.96c.154-.34.14-.738.382-1.056 0-.052 0-.2-.073-.288-.074-.09-.118-.052-.177 0-.419.088-.845.17-1.264.288a6.806 6.806 0 01-1.397.428c-.359.053-.709.16-1.036.318-.351.12-.691.271-1.015.451a1.191 1.191 0 00-.639.946c-.015.406.04.81.161 1.198a.305.305 0 00.184.162l1.059.274.029-.044zm2.801-6.66c-.252.017-.5.072-.735.163a7.758 7.758 0 00-.868.74c.169.066.25.118.339.14.088.022.227-.081.117-.31l.228-.06c.176-.055.347-.122.515-.2.183-.103.382-.214.382-.472.316.081.522-.037.573-.414l-.566.421.015-.007zm8.109 11.923l-.059.266c-.309-.362-.588-.088-.882 0a3.098 3.098 0 01-.456 0 2.197 2.197 0 00-.993.104.913.913 0 01-.426 0c-.563.007-1.126-.03-1.683-.111-.272-.052-.515 0-.78 0a6.364 6.364 0 00-2.043.177c-.397.082-.611-.103-.684-.517-.052-.288-.154-.48-.522-.37-.059.266-.265.392-.537.488-.272.096-.61.333-.926.466a4.25 4.25 0 01-1.625.377c-.353 0-.698.081-1.051.11a10.27 10.27 0 01-1.264.075c-.85.033-1.7-.027-2.537-.178a9.926 9.926 0 01-2.073-.628 6.72 6.72 0 01-1.014-.614.662.662 0 01-.338-.532c0-.051-.096-.11-.155-.155a1.955 1.955 0 01-.397-.288 8.399 8.399 0 01-.625-.828 9.977 9.977 0 01-.522-.835.667.667 0 01-.044-.4 1.702 1.702 0 01-.191-.465v-1.25c0-.051-.073-.095-.073-.147 0-.052-.133-.274.103-.4.235-.125.169-.347.213-.546.028-.361.128-.713.294-1.035.072-.163.121-.334.147-.51.096-.377.229-.744.397-1.094.275-.458.579-.898.911-1.316a6.41 6.41 0 01.471-.606c.163-.18.346-.34.544-.48.529-.362 1.066-.695 1.595-1.057a3.72 3.72 0 011.625-.695c.256-.068.503-.167.735-.296a6.89 6.89 0 012.323-.37 5.857 5.857 0 001.831-.443c.356-.102.724-.16 1.095-.17l1.757-.214c.345 0 .698 0 1.044-.06a1.198 1.198 0 00.933-.428 1.16 1.16 0 00.052-.74 5.208 5.208 0 00-.375-.871 5.199 5.199 0 00-.272-.54 1.031 1.031 0 00-.926-.429h-1.176a.93.93 0 00-.412.133 7.221 7.221 0 00-.684.48.736.736 0 00-.176.26c-.147.288-.427.502-.449.872 0 .2-.558.569-.735.576l-1.242.067c-.574 0-1.154 0-1.728.059-.331 0-.654.104-.978.104-.323 0-.602-.082-.896-.111h-.537c-.273.03-.548.015-.816-.045a3.123 3.123 0 00-1.603-.17.389.389 0 01-.456-.421 4.457 4.457 0 01.383-1.478c.036-.096.132-.163.176-.252.199-.362.368-.739.581-1.079.265-.45.555-.883.867-1.3.188-.214.395-.41.618-.585 0 0 .059 0 .066-.037a1.852 1.852 0 011.279-1.16l.412-.17-.147-.155c.323-.074.662-.133.992-.237.331-.103.772-.288 1.169-.399.397-.11.735-.17 1.081-.244.345-.074.735-.155 1.147-.2.735-.073 1.419-.11 2.124-.184a2.106 2.106 0 011.029-.06c.207.089.425.149.647.178.397.044.802.06 1.199.067h1.999c.376.035.749.091 1.118.17l1.36.192a4.772 4.772 0 011.691.62 6.735 6.735 0 011.845 1.627c.238.301.399.656.47 1.035.076.253.172.5.287.739.233.59.282 1.237.14 1.855a.415.415 0 000 .251 1.858 1.858 0 01-.206 1.478.377.377 0 000 .311.488.488 0 010 .695.232.232 0 00-.059.162 1.49 1.49 0 01-.206.74c-.069.24-.104.489-.103.739-.081.495-.169.983-.25 1.478-.036.23-.073.458-.117.68-.14.784-.243 1.582-.449 2.343-.11.414-.088.835-.184 1.227-.213.887-.08 1.804-.33 2.683-.169.584-.25 1.198-.361 1.796-.058.303-.073.621-.147.917-.061.212-.138.42-.228.62a1.742 1.742 0 01-.154.407 1.472 1.472 0 01-.367.252l-.074-.074m11.101-14.739v.429l.382-.348-.382-.08zm3.205-4.043l-.449.318c.258.066.515.133.449-.318zm.47-2.506l-.161-.066-.169.31.242.096.088-.34zm-6.248 9.15c-.162.09-.339.186-.522.274v.074l.257.052a.196.196 0 010-.06l.272-.088v-.251h-.007zm3.55 4.236h-.11l-.044.451h.206c.242-.177 0-.295-.052-.429v-.022zm-5.234-5.3l.397-.14-.22-.429h-.089c0 .178-.051.355-.088.57zm3.426-11.966c-.221.414-.221.414.154.547.243-.259-.066-.355-.154-.547zm-2.404 6.889l.051.073.419-.302-.367-.326-.103.555zm4.102 11.464l-.228.11-.213.562.573-.391c-.051-.111-.095-.192-.132-.281zm.434-1.796c-.052-.252.382-.451.132-.65l-.485.214.353.436zm2.463-17l.455.406a2.8 2.8 0 00.074-.473c0-.089-.081-.178-.125-.274l-.221.148c-.066.06-.125.133-.183.192zm-5.058-.954l-.53-.555c0 .377-.044.643-.058.902h.294c.081-.096.161-.2.294-.347zm1.22 24.924a.644.644 0 00-.625.059c-.081.06-.103.192-.154.296.107.038.218.063.331.074.242 0 .353-.185.448-.43zm-3.352.185c.154.125.287.325.463.37.213.015.426-.005.632-.06a.585.585 0 010-.118 2.196 2.196 0 00-1.103-.192h.008zm7.756-27.43c.019.127.046.253.081.377 0 .052.095.133.124.118.03-.015.17-.074.177-.133.051-.273.081-.554.118-.843l-.089-.08-.683.605.308-.074-.036.03zm-.699 8.1l-.066-.05c-.088.125-.184.25-.265.376a1.43 1.43 0 01-.176.274.473.473 0 000 .65 2.22 2.22 0 00.529-1.25h-.022zm-1.301 6.845c.243-.044.471-.14.287-.406-.096-.14-.331-.178-.508-.259l-.051.081.088.2-.073-.037a.891.891 0 00-.184.296c0 .044.132.125.206.184.073.06.184.119.309.207 0-.088-.045-.17-.074-.266zm2.411-16.69c.522-.273.853.148 1.25.274a8.68 8.68 0 01-.095 1.005 1.477 1.477 0 00-.059.865c0 .044-.052.126-.081.192-.03.067-.074.052-.081.089a1.704 1.704 0 00-.059.599.703.703 0 01-.14.554 2.148 2.148 0 00-.132.613c-.037.296.052.6-.176.865-.059.067 0 .215 0 .325a3.76 3.76 0 01-.155 1.338 4.224 4.224 0 00-.125 1.02c-.058.57-.095 1.139-.191 1.7-.11.604-.184 1.214-.22 1.826v.052c-.302.355-.177.806-.265 1.212-.088.407 0 .65 0 .968-.051.436-.147.873-.228 1.309-.081.436-.22 1.034-.309 1.552-.088.517-.125.842-.176 1.256 0 .259-.037.51-.074.74a1.152 1.152 0 01-.125.302s-.044 0-.044.045a7.124 7.124 0 01-.081.798 3.223 3.223 0 01-.213.562 2.1 2.1 0 00-.088.17c-.081.392-.154.79-.235 1.183a11.529 11.529 0 01-.412 1.759 12.2 12.2 0 00-.235 1.345c-.155.576-.147 1.19-.279 1.774-.067.288-.125.599-.184.872-.059.274-.243.68-.331 1.027a2.997 2.997 0 01-.294.806c-.101.3-.133.618-.096.931 0 .311-.389.799-.691.74-.139 0-.36-.163-.382-.281 0-.252-.213-.2-.324-.192-1.382.059-2.764.125-4.146.2a12.12 12.12 0 01-1.36.095 9.064 9.064 0 01-1.411-.229.332.332 0 01-.206-.251 2.475 2.475 0 010-.74c.154-.738.367-1.478.515-2.172.08-.385.058-.784.102-1.176 0-.125.125-.229.155-.354.066-.34.11-.68.176-1.013 0-.133.111-.244.147-.377.115-.35.192-.712.228-1.08a12.61 12.61 0 01.368-2.357c.029-.44.121-.873.272-1.286a5.57 5.57 0 00.198-1.094c.155-.636.338-1.264.493-1.9.154-.635.286-1.323.434-1.98.069-.465.168-.924.294-1.375a7.575 7.575 0 00.33-1.834c.074-.864.272-1.714.427-2.564.125-.658.294-1.301.434-1.952a1.757 1.757 0 000-.34 9.41 9.41 0 01.191-1.973c.095-.466.066-.954.117-1.427.044-.355.133-.739.191-1.064.021-.271.06-.54.118-.806.072-.303.168-.6.287-.887a.888.888 0 01.578-.39.877.877 0 01.679.154.492.492 0 01.654-.318c.391.044.786.044 1.176 0 .059 0 .125-.052.192-.067.066-.015.279-.074.374 0 .225.123.485.163.736.111a6.505 6.505 0 011.007 0h.573c.279.03.557.074.831.133.044 0 .073.118.11.178m52.997 22.418l-.147-.081c-.066.118-.14.236-.199.362-.058.126.067.074.103.11l.243-.391zm8.175-3.932h-.088c-.192.347-.669.495-.669.968l.375-.207.382-.74v-.021zm-6.528 11.62c.264.102.441.162.61 0 .169-.164.309-.267.095-.504l-.735.503h.03zm7.028-17.068c.661.17.735-.436 1.051-.783-.544.073-.735.48-1.051.783zm8.204 5.174c-.162.163-.309.392-.507.473a.262.262 0 00-.113.052.269.269 0 00-.075.1.27.27 0 00-.02.122.25.25 0 00.039.118c.044.11.213.177.375.303v-.599l.499.104a24.404 24.404 0 01-.198-.673zm-3.779-4.228a5.052 5.052 0 00-.919.326c-.375.221-.852.236-1.169.561a7.641 7.641 0 00-.661.74c-.13.18-.243.374-.338.576-.074.15-.135.306-.184.466-.103.354-.184.739-.309 1.064-.156.3-.193.649-.103.976h-.139c-.037.214-.074.42-.089.628 0 .355-.044.739-.051 1.072-.008.332.397.62.117 1.005 0 .044.074.177.059.251-.05.292.016.592.184.835.184.14.404.23.573.385a.736.736 0 00.78.074c.184-.074.272 0 .375.066.103.067.198.17.286.252.089.08 0 .206 0 .244.138-.048.282-.073.427-.074a1.132 1.132 0 001.235-.51c.088-.119.169-.26.264-.385.096-.125.258-.28.397-.414a1.67 1.67 0 00.192-.288c0-.473.338-.813.514-1.183.177-.37.199-.938.405-1.382.117-.397.188-.806.213-1.22 0-.073.125-.133.132-.199a4.39 4.39 0 000-.931c-.088-.407.059-.85-.221-1.227a8.104 8.104 0 00-.485-.74 3.49 3.49 0 00-.691-.517 3.686 3.686 0 00-.419-.207c-.191.2-.206-.103-.36-.229l-.015-.015zm1.434 16.58a1.11 1.11 0 01-.294.147l-1.323.067h-.14c-.14-.289-.272-.111-.353-.037l-.919-.096c-.375-.045-.735-.119-1.117-.156-.383-.036-.647-.044-.978-.059h-.257c-.287-.244-.736-.11-.993-.406 0-.037-.198.074-.265 0a10.726 10.726 0 01-.896-.495c-.17-.104-.317-.244-.537-.407-.042.24-.114.473-.213.695a1.474 1.474 0 01-.522.51 3.09 3.09 0 01-.934.244c-.25 0-.507.251-.794.207a1.326 1.326 0 00-.853.221c-.066 0-.183-.044-.279 0-.096.045-.25.06-.375.067-.125.007-.353 0-.529 0-.177 0-.368.067-.559.081a2.413 2.413 0 01-.566 0c-.515-.118-1.022-.258-1.522-.392a.985.985 0 000 .134h-.073c0-.111-.037-.23-.052-.348h-.213a.593.593 0 01.118.111c.006.04.006.08 0 .118a3.923 3.923 0 00-.61.052c-.155 0-.287.067-.383-.11a.16.16 0 00-.132 0c-.375.236-.662-.149-1-.156a.442.442 0 01-.059-.325c.191-.4.265-.846.214-1.286.015-.252.062-.5.139-.74a1.898 1.898 0 010-.184c.074-.237-.184-.57.221-.703v-.184a2.22 2.22 0 01.309-1.22 3.77 3.77 0 00.176-.82c.096-.459.184-.917.294-1.368.051-.2.154-.384.221-.576a2.6 2.6 0 00.066-.325v-.052c.47-.355.066-.887.264-1.316.081-.17.287-.406.045-.636.308-.399.176-.931.426-1.352.051-.082 0-.215.044-.318.088-.288.206-.57.287-.865.081-.296.117-.672.206-1.005.088-.333.257-.74.367-1.094.155-.51.25-1.05.449-1.545.102-.266.073-.562.191-.783.213-.54.335-1.113.36-1.693a8.04 8.04 0 01.331-1.064c.121-.361.195-.737.22-1.117.009-.288.043-.575.103-.857.235-1.013.485-2.025.735-3.03v-.119c-.191-.192-.103-.406-.036-.598.102-.31.242-.606.36-.91.055-.12.096-.247.125-.377a3.44 3.44 0 00.162-.916.556.556 0 01.139-.429c.177-.125.133-.28.147-.436a7.381 7.381 0 01.052-1.478c0-.074-.059-.178-.103-.303a1.466 1.466 0 011.22-.74 11.7 11.7 0 001.426-.103c.331-.044.662-.14 1-.192.338-.052.581-.067.875-.089.588-.037 1.169-.081 1.757-.11.243 0 .478.051.735.051.208-.001.416-.028.618-.081a.79.79 0 01.735.17c.176.229.257.074.353-.037.1.028.198.062.294.103.117.067.308.111.117.303a.104.104 0 00-.013.052c0 .018.004.036.013.052.138.524.091 1.08-.132 1.574a9.415 9.415 0 00-.441 1.634c0 .318-.132.599-.169.894v.118c-.39.318-.177.799-.338 1.183-.067.163-.103.333-.147.473.007.11.007.222 0 .333a12 12 0 01-.118 1.478c0 .318-.132.62-.184.931 0 .074.037.155.059.23.162-.097.287-.193.426-.26.14-.066.449-.199.677-.295.404-.162.801-.34 1.213-.48.241-.059.487-.096.735-.111 0 0 .081-.126.147-.126.456 0 .897-.118 1.36-.11a5.192 5.192 0 001.331-.34v-.097c.057.077.121.148.191.214.081.06.228.148.257.126.25-.2.522-.088.779-.096.091.02.18.05.265.089l.507.103h.169c.417.06.826.164 1.221.31.494.195.946.483 1.33.85.211.189.434.362.669.518a.462.462 0 01.147.17c.096.201.25.368.441.48.173.136.307.314.39.518.132.318.191.673.331.99.066.156.272.244.36.4.211.286.301.645.25.997a.237.237 0 000 .119c0 .074.081.148.11.229.155.406.316.813.463 1.227a.951.951 0 010 .2h.111a2.046 2.046 0 00-.162 1.027c.029.28-.009.565-.11.828a.74.74 0 00.066.598c-.361.222 0 .57-.162.872a12.194 12.194 0 00-.448 1.885c-.037.148-.133.289-.155.437a.805.805 0 00.059.317c.066.289.132.577.213.961l-.331-.2-.176.111.169.156c-.243.672-.493 1.345-.735 2.07.11.17.081.221-.177.376a.486.486 0 00-.242.495.779.779 0 01-.081.355 3.25 3.25 0 01-.257.503 8.484 8.484 0 01-.596.828 3.061 3.061 0 01-.154.392c-.066.11-.199.177-.25.288a2.529 2.529 0 01-.735.924c-.155.118-.221.34-.338.51a2.097 2.097 0 01-.228.207l-.309.28a.648.648 0 01-.213.134c-.096 0-.228 0-.162.17 0 0-.125.155-.184.148-.22-.038-.287.17-.434.243-.147.074-.316.111-.492.17.147.363-.309.052-.397.23 0 .059-.206 0-.272.103a2.651 2.651 0 01-1.36.68c-.14 0-.287-.14-.419 0s-.427.037-.64.044c-.213.008-.272.045-.411.052a.977.977 0 01-.228 0m104.714-4.146c0-.14.037-.274.059-.407l-.081-.044-.338.48h.36v-.03zm-3.095-2.321c-.324-.31-.39 0-.544.044.023.058.042.117.059.177l.485-.221zm-.331-15.966c0 .089-.088.163-.073.222.028.07.08.127.147.162.142-.088.28-.184.411-.288l-.485-.096zm-14.166 14.657l-.191-.562-.375.311.566.251zm.735-7.694l.096-.045a2.095 2.095 0 00-.294-.273c-.037 0-.162 0-.192.081-.029.082 0 .422.184.599l.206-.362zm13.277 6.955c.331.074.507 0 .448-.34v-.066c0-.023.088-.178.125-.267-.081 0-.169-.103-.25-.088a.326.326 0 00-.206.177 5.852 5.852 0 00-.147.584h.03zm4.999 2.646a2.896 2.896 0 001.286-1.352c-.206.074-.485.074-.478.414 0 0-.117.037-.176.059-.059.022-.191.044-.235.103-.044.06-.147.303-.236.451-.088.148-.169.192-.227.303-.059.111 0 .155.036.222.037.066.089 0 .14 0 .051 0-.059-.148-.081-.215l-.029.015zm-19.526-9.941c-.235-.458.287-3.696.61-3.822a1.05 1.05 0 01-.192-.434 1.044 1.044 0 01.023-.475c.022-.213.104-.415.236-.584.191-.229.125-.325-.081-.399v-2.21c0-.185-.111-.443.198-.532v-.192a2.6 2.6 0 01.081-.274 5.302 5.302 0 010-.591c.044-.355.132-.702.177-1.057.044-.355 0-.532.066-.791.088-.62.191-1.234.279-1.848a.69.69 0 000-.17.745.745 0 01.183-.663.737.737 0 01.648-.224c.169 0 .338-.103.507-.11.163.002.325.02.485.051h.14c.154-.273.294-.11.397 0 .36-.118.654-.45 1.058-.133h.236l.919.103a.3.3 0 00.198-.036c.199-.14.368-.31.625-.067.051.052.221 0 .331 0 .245.015.49.015.735 0a.73.73 0 00.404-.207c.184-.214.419-.103.625-.118.196.024.387.079.566.162v.082a.654.654 0 00.133.148c.125.073.36.125.36.177-.013.33-.045.657-.096.983 0 .214-.044.421-.059.628a12.55 12.55 0 00-.08 1.745 4.07 4.07 0 01-.147 1.308 9.221 9.221 0 00-.184 2.424c0 .045.044.09.073.126.03.037.088.081.088.126v1.005c.397-.222.736-.421 1.081-.606.081-.045.206-.111.265-.089a.525.525 0 00.573-.155c.28-.251.603-.118.89-.2h.154c.243-.221.544-.155.823-.162a.208.208 0 00.096-.052c.244-.146.525-.218.809-.207.294 0 .595-.11.897-.14.436-.08.88-.105 1.323-.074a9.636 9.636 0 011.536.465c.327.103.647.229.956.377.216.135.42.288.61.459.318.342.704.614 1.132.798.471.133.522.628.735.99.118.215.228.444.339.666a.535.535 0 01.058.133c.093.405.216.803.368 1.19.14.428.301.85.441 1.278a.837.837 0 010 .274c0 .155-.096.325.103.443.051 0 .051.163.059.252 0 .258.044.524.051.79 0 .104-.044.215-.044.318-.007.15-.007.301 0 .451.007.069.007.138 0 .207a7.437 7.437 0 01-.125.813c0 .119-.147.207-.162.296.076.273.128.553.155.835 0 .54-.059 1.08-.103 1.611-.044.533-.081.895-.11 1.338-.03.444 0 .917-.067 1.368a1.977 1.977 0 01-.22.554c.023.092.041.186.051.281v.414a5.904 5.904 0 01-.308 1.633 5.15 5.15 0 00-.317 1.39c0 .532-.073 1.05-.073 1.574.009.308.043.615.103.917 0 .207 0 .28-.257.384 0 .259-.14.422-.419.385 0 0-.096-.045-.103 0-.236.318-.566.125-.853.17-.287.044-.397 0-.596.044a3.81 3.81 0 01-.735.11c-.507-.05-.992.141-1.47.082a3.23 3.23 0 01-.493-.162c-.095.31-.183.332-.433.103l-.236.192c-.147-.155-.25-.236-.47 0-.221.237-.478.074-.772.104-.051.096-.051.096-.419-.14-.132.354-.279.443-.698.472a.777.777 0 01-.596-.125c-.044-.037-.162 0-.265 0a.331.331 0 010-.133c.118-.673.243-1.338.346-2.01.058-.366.097-.733.118-1.102.044-.74.103-1.478.117-2.218a8.918 8.918 0 000-2.128c0-.104.052-.222.059-.333.082-.55.131-1.106.147-1.663 0-1.146-.044-2.299-.162-3.437-.036-.392-.066-.798-.139-1.19a2.97 2.97 0 00-.478-1.175c-.184-.244-.581-.326-.882-.48a.244.244 0 01-.169-.082c-.037-.044-.199-.222-.294-.333v.096a2.39 2.39 0 00-.412.067 1.757 1.757 0 00-.559.296 7.674 7.674 0 00-1.595 1.929 6.921 6.921 0 00-.537 1.034c-.103.311-.176.621-.257.94a6.658 6.658 0 00-.177.738c-.073.451-.125.902-.176 1.353-.051.45-.081.82-.125 1.227a1.13 1.13 0 01-.132.444c-.133.236-.037.546-.316.739-.096.074 0 .384 0 .584v.487c-.28.09-.243.34-.199.621.033.179.033.362 0 .54a9.097 9.097 0 00-.059 2.143 14.4 14.4 0 01-.132 1.87 1.09 1.09 0 01-1.25.74.99.99 0 00-.456.059c-.36.081-.639.362-1.051.325-.272 0-.551.185-.831.28a2.168 2.168 0 01-.396.075 3.037 3.037 0 01-1.265.14 2.91 2.91 0 00-.434 0h-.794c-.47-.074-.941-.133-1.404-.244a.866.866 0 01-.507-.37c-.088-.154 0-.398 0-.605v-.673c.083-.745.203-1.485.36-2.218a2.53 2.53 0 00.037-1.367c-.103-.244.059-.591.081-.894.051-.614.103-1.227.125-1.84a1.678 1.678 0 01.198-.925.156.156 0 00.016-.07.156.156 0 00-.016-.07c-.08-.43-.06-.873.059-1.294.052-.377 0-.739.066-1.13.066-.392.118-.799.177-1.198.036-.236.081-.48.117-.74.103-.65.214-1.307.294-1.958a7.486 7.486 0 000-.82c0-.082.037-.163.052-.244h.081m-31.171-2.425l-.36-.598-.088.347.448.251zm-7.072 6.734l.096-.052-.191-.362c-.258.266-.243.303.095.414zm3.294 2.69l.044.104c.117-.067.242-.126.353-.2.11-.074 0-.133-.074-.162a.727.727 0 00-.235-.06c.051.112.081.186.11.26l-.198.058zm-8.506-.909c.118.193.206.348.294.503.103-.266.096-.466-.294-.503zm8.087-2.638c-.228.221-.228.295 0 .45.088-.147.286-.295 0-.45zm2.94.953s.044.14.111.17a.248.248 0 00.242-.066v-.31l-.323.206h-.03zm-5.315-8.338c.191-.11.596.156.515-.34l-.258.038-.257.302zm.559 16.86h-.118c.057.08.119.157.184.23.265-.222.25-.348-.044-.51v.266l-.022.014zm5.168-15.41c-.103.056-.2.126-.287.206a1.21 1.21 0 00-.169.259l.243.14.073-.037c-.353-.317.265-.303.14-.569zm-6.447 7.45l-.184-.584-.11-.11c0 .08-.096.177-.066.236.058.17 0 .428.36.458zm5.146.62a1.62 1.62 0 00-.302.045c-.058 0-.147.111-.139.14a.36.36 0 00.154.2c.116.04.238.063.36.067 0-.126-.044-.281-.073-.451zm.169-.095h.11l.427-.532-.081-.104c-.133.06-.316.089-.39.192-.073.104-.051.288-.066.429v.015zm-10.939 3.104l.338-.62v-.075l-.595.266.294.43h-.037zm11.542-.414a.278.278 0 000-.081c-.111 0-.236-.044-.331 0-.213.103-.287.296-.206.628l.566-.554-.029.007zm.029-5.455h-.272l.132.274-.375.074.302.62c.073-.362.14-.657.213-.997v.03zm-13.821-2.801a.514.514 0 010-.096 1.438 1.438 0 01-.25-.215 1.235 1.235 0 01-.088-.244c-.257 0-.213.244-.265.4a.215.215 0 00.074.17h.515l.014-.015zm17.387-.725c-.006.11-.021.219-.045.326-.073.251-.058.31.162.48l.294-.377c.199-.443-.272-.251-.411-.428zm-7.117 1.93c.103 0 .272.096.353.044.238-.172.459-.365.662-.576a.168.168 0 00.022-.085c0-.03-.007-.06-.022-.085a.207.207 0 00-.184 0c-.184.103-.169.11-.272-.082 0-.052-.11-.066-.235-.14a4.988 4.988 0 01-.103.569 2.187 2.187 0 01-.213.362l-.008-.007zm-8.535 11.612h.074a2.366 2.366 0 011.573-.939c0-.2.074-.45 0-.57-.074-.117-.191-.465-.522-.273.125.163.11.281-.059.422-.367.303-.566.739-1 1.012-.058 0 0 .215-.044.333l-.022.015zm7.028-5.381a.734.734 0 00-.286-.119 2.19 2.19 0 00-.537.096 5.717 5.717 0 01-1.066 0c-.5 0-.97.207-1.47.2a1.57 1.57 0 00-1.287.466c-.132.155-.419.214-.478.377-.183.458-.411.901-.059 1.426a2.098 2.098 0 001.162 1.153 1.84 1.84 0 001.272-.118c.25-.14.492-.288.735-.45.122-.101.238-.21.345-.326.317-.31.64-.606.949-.924.176-.185.309-.414.485-.599.294-.37.487-.81.559-1.278l-.522.192.198-.096zm4.86-8.035h-.294c0 .081 0 .192-.059.252a.98.98 0 00-.155.74c-.183.146-.345-.068-.573-.046l.176.296c-.191.11-.47.17-.558.34-.155.288-.287.547-.64.554v.37l-.198-.207c-.042.082-.089.16-.14.236a1.44 1.44 0 01-.206.148l.199.163c-.052 0-.096 0-.103.052-.059.317-.346.399-.559.569a.934.934 0 00-.184.362s0 .081.037.126l.095-.082c.103-.081.206-.236.317-.244.411 0 .455-.413.669-.628.213-.214.404-.569.683-.739a.54.54 0 00.287-.4.543.543 0 01.294-.324.488.488 0 00.397-.577c.25 0 .507-.037.507-.429a2.65 2.65 0 00-.257.185v-.332c.257 0 .353-.148.257-.392l.574.081-.243-.34-.323.266zm-5.338 15.153c-.066-.23-.132-.466-.191-.695l-.808.695h-.155c-.051 0-.198 0-.198.066-.037.303-.316.252-.485.348l-.294.184c-.206.126-.412.267-.633.385a.615.615 0 01-.257 0c-.096.236-.39.332-.735.222-.155.31-.36.354-.654.147a.193.193 0 00-.133 0c-.066.237-.316.155-.434.259-.117.104-.249.052-.308-.044-.39 0-.64.473-1.081.2-.059 0-.213.088-.323.103-.236 0-.464.044-.699.052 0 0-.081-.045-.103 0-.507.258-1.051.066-1.573.133a.927.927 0 01-.691-.207l.213.28c-.36-.088-.661-.14-.948-.243-.287-.104-.588-.296-.897-.37-.309-.074-.25-.17-.301-.303-.052-.133-.074-.244-.236-.096h-.154a1.53 1.53 0 01-.816-1.264s0-.052-.052-.096h-.088a.472.472 0 00-.088.059 3.553 3.553 0 01-.617-.976 4.15 4.15 0 01-.368-1.537 3.514 3.514 0 00-.169-.88 6.075 6.075 0 010-.739 5.605 5.605 0 01.287-1.633c0-.052.073-.096.11-.134.037-.037.147-.133.176-.221.074-.266.118-.54.191-.813a1.66 1.66 0 01.17-.252c.048-.08.09-.164.124-.25.108-.491.401-.92.816-1.198.368-.23.662-.562 1.022-.799.28-.14.57-.259.868-.354a4.54 4.54 0 00.566-.274c.213-.126.426-.414.617-.399.419 0 .412-.325.618-.429.206-.103.412-.118.61-.192.346-.14.676-.303 1.022-.429.345-.125.794-.236 1.191-.362.397-.125.978-.325 1.47-.45.382-.097.787-.141 1.176-.208a.255.255 0 00.111-.066.776.776 0 011.007-.178.195.195 0 00.169 0c.36-.207.735 0 1.103-.066.39-.073.775-.17 1.154-.288.212-.084.407-.206.573-.362a.895.895 0 00.206-1.168 1.622 1.622 0 00-.647-.865.561.561 0 00-.323-.096.733.733 0 01-.699-.178 1.12 1.12 0 00-1.176-.118c-.088 0-.132.163-.22.214-.317.2-.669.363-.964.592-.207.18-.387.39-.536.62a1.85 1.85 0 00-.169.43 1.477 1.477 0 01-1.324.93c-.095 0-.213-.066-.316-.059-.235 0-.47.067-.735.06-.264-.008-.551-.09-.83-.126a8.952 8.952 0 00-1.258 0h-1.014c-.184 0-.368 0-.551.044-.339 0-.677.089-1.022.119-.346.03-.5 0-.735 0a.403.403 0 01-.46-.32.405.405 0 01.011-.205.615.615 0 00-.25-.74c.177-.34.382-.672.544-1.027.235-.517.441-1.05.669-1.567 0-.074.14-.118.184-.192.044-.074.147-.34.235-.495.169-.318.353-.621.529-.932.095-.199.203-.392.324-.576.174-.22.374-.42.595-.591.161-.088.331-.155.508-.2a5.34 5.34 0 011.051-.399c.375-.052.684-.244 1.036-.325.353-.082.736-.185 1.111-.259.374-.074.617-.074.918-.133.545-.104 1.081-.222 1.625-.333.1-.01.201-.01.302 0 .411.037.808-.31 1.235-.051.312-.147.666-.178.999-.09.331.06.684 0 1.03.045.286.022.567.082.838.178.739.203 1.494.344 2.257.421.573.126 1.117.392 1.69.532.298.127.603.238.912.333a8.227 8.227 0 011.845.806.647.647 0 01.456.532c0 .11.11.2.169.31l.052-.037c.198.266.397.525.58.798.097.147.173.306.228.473.098.314.166.636.206.961a2.17 2.17 0 00.235 1.131c.059.096.169.281-.066.362a.205.205 0 00-.032.063.185.185 0 00-.005.07c.074.385.162.74.214 1.16a.62.62 0 01-.044.444c-.17.252-.096.525-.133.791a2.69 2.69 0 01-.139.37c.102.421-.14.887 0 1.338l-.331.118c.294.377 0 .74.051 1.101 0 .067-.051.163 0 .222.177.421-.154.74-.14 1.175-.367.133-.051.34-.066.518 0 .176-.02.352-.059.524-.139.488-.316.969-.463 1.479a4.318 4.318 0 00-.11.687c0 .133.044.31 0 .385-.235.25-.169.569-.213.842-.132.74-.206 1.479-.316 2.218a2.38 2.38 0 01-.243.739c.036.12.058.244.066.37a.37.37 0 00.191.429c.148.08.14.213 0 .39a2.82 2.82 0 01-.874.696c-.111.073-.294 0-.449.044-.448.052-.889.118-1.345.155-.088 0-.191-.074-.287-.059-.095.015-.345 0-.514.044-.17.045-.287.133-.427.126-.338 0-.676-.074-1.014-.118h-.14c-.132.244-.331.074-.5.081a3.94 3.94 0 00-.926.067 3.388 3.388 0 01-.677 0c-.154 0-.286.044-.396-.111h-.184c-.294 0-.559 0-.625-.318-.066-.318-.059-.54-.074-.813.007-.095.024-.19.052-.281h.051m-31.765-12.226l.316.57v-.57h-.316zm7.939-8.071c-.051-.436-.309-.37-.566-.303l.566.303zm8.329 6.445l.081.052c.471-.31.471-.31.309-.473l-.39.421zm-7.351-2.047v.096l.39.044v-.384l-.419.244h.029zm4.205 7.059c.191-.377.132-.57-.162-.584 0 .081.059.155.096.236l-.302.148.368.2zm3.734-2.498c-.169.066-.433-.045-.507.258 0 .074-.147.118-.272.207.066 0 .169.118.25.104a.566.566 0 00.309-.193c.086-.117.16-.244.22-.377zm-9.13-1.945l.044.082c.066-.06.125-.155.191-.163h.772c.132 0 .257-.037.39-.052 0-.044 0-.088.037-.133l-.559-.672c.279-.266.287-.4 0-.65a2.373 2.373 0 00-.618-.392 8.311 8.311 0 00-1.191-.4 1.462 1.462 0 00-.735 0 3.033 3.033 0 00-.654.392 4.053 4.053 0 00-.735.48c-.351.38-.67.789-.956 1.22a.62.62 0 000 .473c0 .067.257.067.397.06.338 0 .676-.111 1.022-.126h2.249c.206 0 .243-.052.368-.074l-.022-.044zm-3.749-8.152c.338-.045.61-.111.889-.119.276.009.551.034.824.074.169-.288.522-.236.867-.184.471.066.941.14 1.404.221.177 0 .346.104.53.148l.698.148.316.06c.482.095.958.219 1.426.369.665.206 1.276.56 1.787 1.035.277.207.572.39.882.546.536.363 1.08.74 1.595 1.131.2.182.382.382.544.599l1 1.124a.717.717 0 00.154.14c.207.124.36.322.427.554.058.23.272.414.316.636.139.695.544 1.353.375 2.107.185.441.203.935.051 1.39-.073.332.184.553.103.842-.081.288-.103.48-.169.739a3.07 3.07 0 00-.191.599c0 .229-.191.317-.294.473-.103.155-.125.125-.133.192 0 .57-.47.843-.845 1.138-.227.12-.479.186-.735.192a9.552 9.552 0 01-1.007.163c-.574.06-1.154.096-1.735.133-.066 0-.14-.067-.213-.103a.444.444 0 01-.53.096 1.663 1.663 0 00-.625 0 7.689 7.689 0 01-.999.08c-.405 0-.809-.095-1.206-.132h-.735a8.963 8.963 0 01-1.47-.074 7.46 7.46 0 00-1.405 0c-.522 0-1.051.074-1.58.096-.272 0-.544 0-.823-.037h-.897a2.106 2.106 0 00.669 1.826c.257.266.624.325.852.613.157.152.339.274.537.362.294.163.581 0 .868 0 .286 0 .492-.096.735-.088a2.28 2.28 0 001.036-.192.893.893 0 01.412-.104 1.38 1.38 0 00.941-.48 1.27 1.27 0 01.809-.466c.252.037.499.107.735.207.095-.259.294-.288.536-.28.243.006.64-.053.956-.067.316-.015.735 0 1.132 0 .397 0 .559.088.838.11.28.023.625 0 .934.045.309.044.669.081 1.007.126a.22.22 0 00.118 0c.345-.178.522.17.83.25-.117.289-.213.555-.33.814a.752.752 0 01-.184.244.556.556 0 00-.184.473c0 .126-.162.273-.279.384a3.524 3.524 0 00-.838 1.057v.052c-.368.236-.522.672-.839.916-.316.244-.404.614-.771.799a4.74 4.74 0 00-.809.702c-.257.214-.515.429-.794.62-.169.119-.39.119-.588.237-.347.16-.709.284-1.081.37l-.566.177a2.92 2.92 0 00-.61 0 4.4 4.4 0 00-1.162.244.466.466 0 01-.433 0h-.133a.57.57 0 01-.735 0 .823.823 0 010 .14l-.941-.014c-.148.026-.3.026-.448 0a4.198 4.198 0 00-1.794-.096 7.196 7.196 0 01-1.323-.089 2.282 2.282 0 00-.816-.06 2.034 2.034 0 01-.809-.14c-.367-.08-.735-.155-1.095-.258a2.198 2.198 0 01-.478-.266 3.664 3.664 0 01-.397-.266 2.021 2.021 0 01-.478-.385c-.456-.576-1.103-.924-1.595-1.478a5.77 5.77 0 01-.39-.458 8.214 8.214 0 01-.867-1.405c-.125-.303-.272-.584-.419-.88a7.452 7.452 0 01-.397-.975 5.338 5.338 0 01-.14-.599 5.288 5.288 0 01-.118-.598c.011-.09.031-.18.059-.267a1.54 1.54 0 000-.192v-.473c0-.354.044-.739.074-1.064 0 0 .059 0 .11-.067a1.133 1.133 0 01-.14-1.034c.052-.281 0-.577.074-.858.088-.495-.081-1.02.206-1.478a3.12 3.12 0 00.206-.924 3.39 3.39 0 01.154-.414c.041-.14.09-.279.147-.414.088-.214.198-.414.287-.628.088-.215.073-.252.125-.37.049-.117.105-.23.169-.34.228-.458.455-.931.691-1.39.235-.458.353-.739.566-1.056.213-.318.47-.444.544-.74.184-.657.853-.739 1.227-1.16.125-.14.368-.177.559-.259h.088c.214-.495.794-.524 1.11-.894.052-.06.214 0 .287-.066.265-.185.5-.392.735-.577.14-.096.294-.178.441-.259a.251.251 0 01.155-.059 4.458 4.458 0 001.47-.34c.204-.077.425-.098.64-.059.25.089.25-.081.279-.133m52.07 5.381l.243-.222-.36-.192-.066.096.183.318zm.736-2.58l-.316.281.316.185v-.466zm5.241.939c0 .096 0 .259.059.31.059.052.221 0 .257 0l-.316-.325v.015zm-1.691 2.077c0-.31-.051-.347-.25-.362-.058 0-.147 0-.154.066-.007.067 0 .148.059.163.112.053.227.097.345.133zm-10.211 14.25c.316-.288 0-.458 0-.672h-.088c.037.207.074.421.118.658l-.03.015zm4.815-13.614l.192-.126-.228-.31c-.059.051-.169.125-.162.155.056.1.122.195.198.28zm8.874 1.655v.104c0 .074 0 .192.051.222a.666.666 0 00.302.066s.066-.125.051-.133a3.494 3.494 0 00-.382-.259h-.022zm-1.052-.354c-.119.12-.23.248-.33.384a.353.353 0 00-.045.244s.125 0 .184.059l.147.06c.177.095.405 0 .53-.326l-.412.185c0-.178-.044-.355-.074-.606zm2.647.569a4.566 4.566 0 00-.426-.555c-.037 0-.243.045-.302.119a.74.74 0 00-.073.34c0 .14 0 .221.191.192l.61-.096zm.162 7.28c.049.114.066.239.049.361a.675.675 0 01-.145.334c-.176.237-.213.57-.382.813-.258.37-.28.858-.647 1.175-.118.104-.125.318-.199.474-.125.318-.36.58-.661.739 0 0-.081 0-.088.059a1.31 1.31 0 01-.346.695c-.096.11-.184.221-.287.325-.345.377-.683.739-1.051 1.116-.368.377-.64.525-.956.79-.089.09-.17.186-.242.29l-.5-.038c0 .333-.213.333-.463.251a.735.735 0 00-.361 0c0 .222-.176.09-.257.133-.081.045-.139 0-.206 0a.595.595 0 000 .104l-.47-.303c0 .155-.037.28-.059.414l-.265-.163-.676.178-.265.08a1.41 1.41 0 01-.242.053 2.647 2.647 0 00-.427 0c-.147.044-.279.14-.426.2-.147.058-.147.036-.176 0-.162-.141-.243-.053-.28 0-.331.036-.617.044-.904.095a1.602 1.602 0 01-1.242-.162 2.042 2.042 0 00-.787-.148 3.87 3.87 0 01-.522-.118 3.934 3.934 0 00-1.279-.082 5.958 5.958 0 01-2.139-.48 14.106 14.106 0 01-1.677-.91 2.694 2.694 0 01-.316-.265 7.37 7.37 0 01-1.727-1.937c-.059-.11-.206-.177-.28-.288-.169-.259-.301-.547-.477-.798a2.39 2.39 0 01-.353-1.094 4.196 4.196 0 00-.258-.74 3.019 3.019 0 01-.044-.354.26.26 0 00-.095-.14.736.736 0 010-.659c-.213-.088-.258-.214-.265-.473a4.478 4.478 0 00-.294-1.212 1.487 1.487 0 01-.051-1.264c.125-.222 0-.562.044-.843a6.137 6.137 0 01.044-.909c0-.177.191-.295.147-.54a3.181 3.181 0 01.073-1.02c.05-.252.124-.5.221-.738.213-.562.434-1.124.676-1.678.075-.138.174-.261.294-.362l.89-.858a.596.596 0 01.11-.074 7.508 7.508 0 001.147-.842c.397-.363.639-.88 1.169-1.11.22-.095.367-.34.558-.494.192-.156.589-.43.875-.65.418-.375.86-.72 1.324-1.036.286-.162.566-.443.918-.391.177 0 .324-.148.471-.192a5.077 5.077 0 012.147-.466c.363.041.73.009 1.08-.096a.433.433 0 01.169 0h1.662c.264 0 .536 0 .801.066.298.081.604.131.912.148h.566c.458.05.899.206 1.286.458.316.14.596.355.912.503a3.81 3.81 0 011.397 1.116c.103.133.301.192.426.318.276.34.584.65.919.931.208.148.381.34.507.562.052.074.081.17.14.244.075.098.159.19.25.273.044.037.125.06.14.104.114.288.298.542.536.739.096.11.191.214.28.333.088.118 0 .051.044.074.139.244.286.48.411.739a1.594 1.594 0 01.044 1.382c-.044.11 0 .259 0 .384 0 .126-.088.289-.154.296-.544.081-1.088.118-1.632.177a3.07 3.07 0 01-.441.082c-.39 0-.735-.052-1.162-.082h-.073c-.353.392-.735.089-1.162.096a3.49 3.49 0 01-.544-.088.353.353 0 00-.169.037c-.16.086-.33.15-.507.192a8.78 8.78 0 00-2.154.177c-.353.104-.698-.148-.816-.598a1.833 1.833 0 00-1.007-1.183 6.469 6.469 0 00-1.331-.407 1.052 1.052 0 00-1.095.244c-.39.385-.897.665-1.243 1.08-.303.413-.55.865-.735 1.345a3.592 3.592 0 00-.316 1.848c-.02.182-.065.361-.132.532a.652.652 0 000 .31c.062.502.244.981.529 1.397.195.287.367.588.515.902.108.137.226.265.353.384.036.045 0 .126.051.185.108.328.32.61.603.806a2.5 2.5 0 001.176.34 8.559 8.559 0 001.051-.074c.736 0 1-.614 1.309-1.109.237-.443.443-.903.618-1.375a1.178 1.178 0 011.021-.391c.051.01.104.01.155 0a.97.97 0 01.191-.067c.448-.044.919.11 1.353-.148.044 0 .147.074.227.081.28 0 .567.045.846.067.247.002.493.026.735.074.36.066.728.066 1.088 0h1.669c.176 0 .375 0 .36.273 0 .045.081.096.118.148l.154.215c-.206.118.052.413-.206.532-.059 0-.066.185-.081.288-.014.104 0 .214-.044.318m111.287 4.331a.28.28 0 00.272-.28.283.283 0 00-.166-.264.276.276 0 00-.106-.025h-.588v.57h.588zm-1.397-1.249a.165.165 0 01.047-.115.16.16 0 01.115-.047h1.382a1.058 1.058 0 011.044 1.108 1.041 1.041 0 01-.566.961l.338.828a.16.16 0 01-.012.155.162.162 0 01-.135.074h-.574a.172.172 0 01-.154-.118l-.346-.902h-.33v.887a.161.161 0 01-.048.115.16.16 0 01-.114.048h-.515a.16.16 0 01-.114-.048.164.164 0 01-.047-.115l.029-2.83zm1.176 3.748c.46.001.91-.135 1.293-.39a2.334 2.334 0 00.994-2.397 2.324 2.324 0 00-1.823-1.84 2.314 2.314 0 00-2.387.992 2.342 2.342 0 00.285 2.947 2.316 2.316 0 001.638.688zm0-5.418c.607-.002 1.2.178 1.705.515a3.094 3.094 0 01.473 4.743 3.05 3.05 0 01-3.342.671 3.071 3.071 0 01-1.377-1.134 3.096 3.096 0 01-.517-1.713 3.104 3.104 0 01.9-2.173 3.07 3.07 0 012.158-.91z" fill="#003B5E"/></svg>