<svg width="106" height="46" viewBox="0 0 106 46" fill="none" xmlns="http://www.w3.org/2000/svg">
<path fill-rule="evenodd" clip-rule="evenodd" d="M74.8534 7.67445C75.5216 8.13389 76.3069 8.37841 77.1098 8.37709C78.1829 8.3683 79.2096 7.92398 79.9678 7.14018C80.726 6.35638 81.1548 5.29609 81.1616 4.18854C81.1616 3.35984 80.9235 2.54976 80.4772 1.86081C80.031 1.17187 79.3968 0.635016 78.6549 0.318193C77.9129 0.0013698 77.0966 -0.0811844 76.3092 0.0809754C75.5218 0.243135 74.7987 0.642722 74.2314 1.22917C73.6641 1.81562 73.2781 2.56257 73.1222 3.37551C72.9663 4.18845 73.0476 5.03084 73.3558 5.79608C73.664 6.56132 74.1851 7.21501 74.8534 7.67445ZM73.6294 11.232V35.5256H80.5902V11.232H73.6294ZM46.0505 1.09507V35.5282H52.9463V32.3852C54.6151 34.9452 57.4722 36.1247 60.576 36.1247C66.8745 36.1247 71.738 30.6092 71.738 23.3915C71.738 16.1738 66.8745 10.6584 60.576 10.6584C59.097 10.606 57.6281 10.9286 56.298 11.5981C54.9678 12.2676 53.817 13.2634 52.9463 14.4984V1.09507H46.0505ZM55.381 18.1291C56.3927 17.4423 57.5794 17.0813 58.7903 17.092C59.5902 17.0901 60.3825 17.2522 61.1213 17.5687C61.8601 17.8852 62.5307 18.3499 63.0942 18.9359C63.6577 19.5218 64.1029 20.2174 64.4041 20.9822C64.7052 21.7471 64.8563 22.566 64.8486 23.3915C64.8498 24.6413 64.4912 25.8634 63.8183 26.9024C63.1453 27.9415 62.1884 28.7508 61.069 29.2275C59.9496 29.7042 58.7182 29.8269 57.5311 29.5799C56.344 29.333 55.2548 28.7276 54.4017 27.8405C53.5486 26.9535 52.9702 25.8248 52.7398 24.5978C52.5094 23.3708 52.6375 22.1008 53.1077 20.9491C53.578 19.7974 54.3692 18.8158 55.381 18.1291ZM105.544 28.515C104.402 32.7438 100.635 36.289 94.6226 36.289C88.0904 36.289 82.2853 31.4638 82.2853 23.2408C82.2853 15.3664 87.967 10.3468 94.1161 10.3468C101.467 10.3468 105.999 15.038 105.999 22.899C106.008 23.6726 105.958 24.4457 105.85 25.2111H89.3111C89.454 27.9722 91.9084 29.9425 94.7005 29.9425C97.2979 29.9425 98.8043 28.6625 99.4666 26.7391L105.544 28.515ZM98.9602 20.3859C98.8628 18.5161 97.6225 16.251 94.1876 16.251C93.0401 16.197 91.9154 16.5935 91.0396 17.3606C90.1638 18.1277 89.602 19.2086 89.4669 20.3859H98.9602ZM13.2139 27.5302C18.2786 10.9369 27.6874 10.5884 32.1029 10.5884C38.9598 10.5884 42.8883 14.6831 42.8883 21.0363V35.5253H36.4469L36.3495 32.5028C34.9664 35.0093 32.2977 36.1955 29.4341 36.1955C25.0447 36.1955 22.0383 33.3338 22.0058 29.085C22.0058 24.5547 24.9408 21.8472 30.7847 20.9626L36.1287 20.1785V19.8836C36.1287 17.8597 34.6028 16.6802 31.3562 16.6802C25.9018 16.6802 22.2331 20.9022 19.7721 27.6374L15.7592 37.6899C13.3113 43.9895 10.4542 46 6.01929 46C4.73494 45.9948 3.45947 45.78 2.24019 45.3633V39.1777C3.02683 39.5291 3.87653 39.7049 4.73362 39.6937C6.7855 39.6937 8.16857 38.856 9.12309 36.497L9.53866 35.5253L0 11.2317H7.3699L13.2139 27.5302ZM35.8366 27.7227C36.0718 27.1121 36.1823 26.4579 36.1612 25.8012V24.9836L32.012 25.6537C29.7653 26.0022 28.6225 26.9337 28.6225 28.4617C28.6679 29.8423 29.7653 30.7269 31.3432 30.7269C31.9793 30.7549 32.6141 30.6471 33.2079 30.4101C33.8018 30.1731 34.3418 29.8121 34.7941 29.3496C35.2464 28.8872 35.6013 28.3333 35.8366 27.7227Z" fill="white"/>
</svg>
